<svg xmlns="http://www.w3.org/2000/svg" xmlns:xlink="http://www.w3.org/1999/xlink" width="500" zoomAndPan="magnify" viewBox="0 0 375 374.999991" height="500" preserveAspectRatio="xMidYMid meet" version="1.0"><defs><clipPath id="id1"><path d="M 58.136719 3.097656 L 313.347656 3.097656 L 313.347656 371.953125 L 58.136719 371.953125 Z M 58.136719 3.097656 " clip-rule="nonzero"/></clipPath><clipPath id="id2"><path d="M 300 340.257812 L 316.886719 340.257812 L 316.886719 363.171875 L 300 363.171875 Z M 300 340.257812 " clip-rule="nonzero"/></clipPath><clipPath id="id3"><path d="M 130.011719 327.0625 L 179.667969 327.0625 L 179.667969 371.953125 L 130.011719 371.953125 Z M 130.011719 327.0625 " clip-rule="nonzero"/></clipPath><clipPath id="id4"><path d="M 130.011719 313.519531 L 181 313.519531 L 181 371.953125 L 130.011719 371.953125 Z M 130.011719 313.519531 " clip-rule="nonzero"/></clipPath></defs><g clip-path="url(#id1)"><path fill="rgb(94.509888%, 30.198669%, 24.708557%)" d="M 310.113281 343.433594 C 310.113281 342.609375 310.199219 341.792969 310.363281 340.996094 C 308.195312 342.195312 305.929688 346.160156 299.273438 348.609375 C 299.273438 348.609375 288.34375 332.507812 288.003906 317.183594 C 288.003906 317.183594 307.484375 327.386719 313.054688 328.316406 C 313.054688 328.316406 286.148438 286.566406 284.292969 238.320312 C 282.433594 190.070312 298.207031 113.988281 278.722656 66.671875 C 258.316406 21.210938 181.949219 -6.820312 118.214844 6.363281 C 118.214844 6.363281 94.199219 13.484375 82.957031 45.332031 C 77.390625 61.105469 61.851562 50.667969 69.96875 36.980469 C 69.96875 36.980469 88.757812 37.214844 85.277344 23.992188 C 81.796875 10.769531 58.835938 11.46875 58.136719 35.820312 C 58.136719 35.820312 60.691406 65.742188 86.667969 65.746094 L 99.890625 62.265625 C 99.890625 62.265625 148.832031 195.636719 94.089844 337.59375 L 81.878906 352.636719 C 81.878906 352.636719 112.933594 362.414062 142.339844 332.027344 C 142.339844 332.027344 137.695312 356.148438 130.277344 371.925781 C 130.277344 371.925781 150.6875 371.925781 179.449219 327.386719 C 179.449219 327.386719 187.800781 349.65625 189.65625 361.71875 C 189.65625 361.71875 210.066406 358.933594 222.128906 314.398438 C 222.128906 314.398438 231.410156 355.222656 249.035156 370.066406 C 249.035156 370.066406 254.601562 372.855469 252.746094 365.429688 C 250.890625 358.007812 250.890625 327.386719 250.890625 327.386719 C 250.890625 327.386719 275.011719 355.222656 286.144531 358.007812 C 297.28125 360.789062 300.992188 350.582031 306.558594 349.65625 C 307.992188 349.417969 309.421875 349.179688 310.757812 348.957031 C 310.777344 348.628906 310.832031 348.207031 310.902344 347.730469 C 310.386719 346.367188 310.113281 344.910156 310.113281 343.433594 " fill-opacity="1" fill-rule="nonzero"/></g><path fill="rgb(89.019775%, 88.62915%, 87.838745%)" d="M 286.882812 358.175781 C 287.574219 358.464844 288.257812 358.71875 288.929688 358.933594 L 289.6875 358.484375 C 288.808594 358.476562 287.875 358.378906 286.882812 358.175781 M 250.890625 327.386719 C 250.890625 327.386719 256.753906 334.425781 264.640625 341.945312 C 257.082031 334.535156 250.890625 327.386719 250.890625 327.386719 " fill-opacity="1" fill-rule="nonzero"/><path fill="rgb(88.238525%, 26.669312%, 20.779419%)" d="M 251.539062 319.851562 L 250.890625 327.386719 C 250.890625 327.386719 257.082031 334.535156 264.640625 341.945312 C 271.375 348.367188 279.585938 355.136719 286.882812 358.175781 C 287.875 358.378906 288.808594 358.476562 289.6875 358.484375 L 291.796875 357.238281 C 291.796875 357.238281 259.589844 339.980469 251.539062 319.851562 " fill-opacity="1" fill-rule="nonzero"/><path fill="rgb(88.238525%, 26.669312%, 20.779419%)" d="M 146.867188 323.878906 C 117.535156 349.183594 99.132812 349.183594 96.257812 349.183594 L 93.957031 353.210938 C 95.105469 353.285156 96.234375 353.320312 97.347656 353.320312 C 121.925781 353.320312 138.3125 335.855469 139.964844 333.65625 C 141.691406 331.355469 146.867188 323.878906 146.867188 323.878906 " fill-opacity="1" fill-rule="nonzero"/><path fill="rgb(94.898987%, 33.729553%, 28.62854%)" d="M 210.488281 188.425781 C 209.710938 188.425781 208.914062 188.398438 208.097656 188.339844 C 201.042969 187.8125 195.457031 185.015625 195.519531 183.925781 C 195.539062 183.574219 196.144531 183.441406 197.191406 183.441406 C 199.390625 183.441406 203.546875 184.027344 208.328125 184.382812 C 215.386719 184.90625 221.144531 184.734375 221.078125 185.828125 C 221.023438 186.792969 216.433594 188.425781 210.488281 188.425781 M 276.3125 145.195312 C 275.230469 147.453125 274.03125 149.65625 272.71875 151.769531 C 273.164062 152.042969 273.65625 152.304688 274.199219 152.550781 C 274.199219 152.550781 267.785156 159.3125 267.765625 159.3125 C 267.765625 159.3125 267.765625 159.308594 267.777344 159.296875 C 267.832031 159.234375 267.734375 158.863281 267.554688 158.277344 C 264.320312 161.5 260.355469 164.316406 255.839844 166.695312 C 256.253906 166.8125 256.507812 166.851562 256.507812 166.851562 C 257.421875 169.976562 247.191406 172.339844 243.425781 173.097656 C 242.597656 173.695312 241.734375 174.230469 240.757812 174.605469 C 233.996094 177.214844 224.902344 178.449219 216 178.449219 C 210.042969 178.449219 204.167969 177.894531 199.132812 176.832031 C 194.933594 175.945312 190.316406 174.761719 185.960938 173.320312 C 199.082031 221.640625 211.960938 275.65625 239.859375 275.65625 C 240.671875 275.65625 241.496094 275.613281 242.335938 275.519531 C 261.394531 273.402344 275.6875 206.75 276.3125 145.195312 M 241.324219 106.804688 C 254.050781 106.804688 260.261719 96.367188 260.261719 96.367188 C 256.21875 107.488281 250.3125 110.742188 244.785156 110.742188 C 236.980469 110.742188 229.929688 104.257812 229.929688 104.257812 C 234.179688 106.082031 237.976562 106.804688 241.324219 106.804688 M 185.640625 113.324219 C 171.0625 113.324219 166.351562 94.886719 166.351562 94.886719 C 174.117188 106.296875 183.648438 109.007812 190.957031 109.007812 C 197.582031 109.007812 202.382812 106.78125 202.382812 106.78125 C 195.730469 111.519531 190.203125 113.324219 185.640625 113.324219 M 196.335938 52.53125 C 185.203125 52.53125 172.539062 51.609375 160.121094 50.132812 C 126.238281 46.097656 107.046875 39.445312 108.4375 27.777344 C 109.640625 17.660156 125.925781 7.089844 152.324219 7.085938 C 156.371094 7.085938 160.652344 7.335938 165.152344 7.871094 C 199.039062 11.90625 232.535156 30.710938 231.144531 42.382812 C 230.265625 49.777344 215.589844 52.53125 196.335938 52.53125 M 152.191406 4.820312 C 115.851562 4.820312 98.109375 20.46875 98.558594 35.6875 C 99.015625 51.320312 133.285156 66.585938 158.183594 103.21875 C 170.941406 116.257812 187.851562 125.242188 211.515625 126.039062 C 212.558594 126.074219 213.574219 126.09375 214.582031 126.09375 C 244.855469 126.09375 259.621094 110.589844 264.289062 102.925781 C 267.136719 98.25 270.386719 97.230469 272.960938 97.230469 C 273.167969 97.230469 273.375 97.234375 273.574219 97.25 C 270.894531 78.179688 266.175781 62.167969 259.015625 52.367188 C 249.28125 39.050781 204.382812 8.097656 161.660156 5.15625 C 158.375 4.925781 155.21875 4.820312 152.191406 4.820312 " fill-opacity="1" fill-rule="nonzero"/><path fill="rgb(95.289612%, 38.819885%, 34.118652%)" d="M 200.929688 27.988281 C 199.628906 27.988281 198.019531 27.636719 196.382812 26.933594 C 193.007812 25.476562 190.816406 23.058594 191.492188 21.53125 C 191.84375 20.738281 192.886719 20.339844 194.28125 20.339844 C 195.585938 20.339844 197.195312 20.6875 198.828125 21.390625 C 202.199219 22.847656 204.394531 25.269531 203.714844 26.796875 C 203.367188 27.585938 202.324219 27.988281 200.929688 27.988281 M 130.292969 18.976562 C 127.972656 18.976562 126.746094 18.730469 127.042969 17.984375 C 127.945312 15.71875 140.546875 10.128906 155.695312 10.128906 C 156.402344 10.128906 157.117188 10.140625 157.835938 10.164062 C 173.910156 10.726562 186.222656 17.660156 185.277344 20.03125 C 185.050781 20.605469 184.195312 20.828125 182.804688 20.828125 C 178.445312 20.828125 168.804688 18.632812 156.613281 18.207031 C 155.03125 18.152344 153.464844 18.128906 151.925781 18.128906 C 147.339844 18.128906 143.015625 18.339844 139.292969 18.550781 C 135.570312 18.761719 132.453125 18.976562 130.292969 18.976562 M 152.324219 7.085938 C 125.925781 7.089844 109.640625 17.660156 108.4375 27.777344 C 107.046875 39.445312 126.238281 46.097656 160.121094 50.132812 C 172.539062 51.609375 185.203125 52.53125 196.335938 52.53125 C 215.589844 52.53125 230.265625 49.777344 231.144531 42.382812 C 232.535156 30.710938 199.039062 11.90625 165.152344 7.871094 C 160.652344 7.335938 156.371094 7.085938 152.324219 7.085938 " fill-opacity="1" fill-rule="nonzero"/><path fill="rgb(94.509888%, 28.239441%, 22.749329%)" d="M 140.535156 286.226562 C 137.375 286.226562 133.761719 290.679688 130.429688 297.1875 C 126.25 305.378906 124.128906 313.742188 127.753906 316.847656 C 128.652344 317.617188 129.824219 317.988281 131.136719 317.988281 C 135.117188 317.988281 140.429688 314.578125 143.558594 308.425781 C 147.75 300.234375 146.519531 290.269531 142.894531 287.171875 C 142.148438 286.527344 141.355469 286.226562 140.535156 286.226562 " fill-opacity="1" fill-rule="nonzero"/><path fill="rgb(94.509888%, 28.239441%, 22.749329%)" d="M 130.542969 264.527344 C 128.332031 264.527344 126.136719 269.292969 124.386719 275.863281 C 122.457031 283.054688 121.789062 289.699219 124.1875 290.71875 C 124.398438 290.804688 124.625 290.847656 124.859375 290.847656 C 127.371094 290.847656 131.34375 286.105469 133.101562 279.542969 C 135.03125 272.347656 133.570312 265.6875 131.160156 264.652344 C 130.957031 264.566406 130.75 264.527344 130.542969 264.527344 " fill-opacity="1" fill-rule="nonzero"/><path fill="rgb(94.509888%, 28.239441%, 22.749329%)" d="M 140.675781 252.015625 C 138.707031 252.015625 137.636719 255.566406 137.316406 260.527344 C 136.945312 266.152344 137.652344 271.460938 140.167969 272.535156 C 140.46875 272.664062 140.78125 272.726562 141.101562 272.726562 C 143.433594 272.726562 146.070312 269.390625 146.398438 264.453125 C 146.773438 258.835938 144 253.285156 141.488281 252.199219 C 141.203125 252.074219 140.933594 252.015625 140.675781 252.015625 " fill-opacity="1" fill-rule="nonzero"/><path fill="rgb(98.039246%, 71.759033%, 69.799805%)" d="M 155.695312 10.128906 C 140.546875 10.128906 127.945312 15.71875 127.042969 17.984375 C 126.746094 18.730469 127.972656 18.976562 130.292969 18.976562 C 132.453125 18.976562 135.570312 18.761719 139.292969 18.550781 C 143.015625 18.339844 147.339844 18.128906 151.925781 18.128906 C 153.464844 18.128906 155.03125 18.152344 156.613281 18.207031 C 168.804688 18.632812 178.445312 20.828125 182.804688 20.828125 C 184.195312 20.828125 185.050781 20.605469 185.277344 20.03125 C 186.222656 17.660156 173.910156 10.726562 157.835938 10.164062 C 157.117188 10.140625 156.402344 10.128906 155.695312 10.128906 " fill-opacity="1" fill-rule="nonzero"/><path fill="rgb(98.039246%, 71.759033%, 69.799805%)" d="M 194.28125 20.339844 C 192.886719 20.339844 191.84375 20.738281 191.492188 21.53125 C 190.816406 23.058594 193.007812 25.476562 196.382812 26.933594 C 198.019531 27.636719 199.628906 27.988281 200.929688 27.988281 C 202.324219 27.988281 203.367188 27.585938 203.714844 26.796875 C 204.394531 25.269531 202.199219 22.847656 198.828125 21.390625 C 197.195312 20.6875 195.585938 20.339844 194.28125 20.339844 " fill-opacity="1" fill-rule="nonzero"/><path fill="rgb(79.219055%, 24.708557%, 19.60907%)" d="M 303.308594 343.164062 C 303.308594 343.164062 290.785156 355.222656 288.929688 358.933594 C 288.929688 358.933594 297.742188 358.472656 301.917969 356.152344 C 301.917969 356.152344 307.484375 345.949219 312.125 345.949219 L 303.308594 343.164062 " fill-opacity="1" fill-rule="nonzero"/><path fill="rgb(79.219055%, 24.708557%, 19.60907%)" d="M 98.730469 352.441406 C 98.730469 352.441406 93.625 332.957031 88.523438 327.855469 C 83.421875 322.75 73.214844 329.246094 73.214844 329.246094 L 76 351.976562 C 76 351.976562 90.382812 356.148438 98.730469 352.441406 " fill-opacity="1" fill-rule="nonzero"/><path fill="rgb(94.509888%, 30.198669%, 24.708557%)" d="M 88.523438 327.855469 C 88.523438 327.855469 70.433594 353.367188 66.257812 355.222656 C 62.082031 357.082031 73.214844 329.246094 73.214844 329.246094 C 73.214844 329.246094 76.460938 321.820312 88.523438 327.855469 " fill-opacity="1" fill-rule="nonzero"/><g clip-path="url(#id2)"><path fill="rgb(94.509888%, 30.198669%, 24.708557%)" d="M 315.371094 363.113281 C 315.371094 363.113281 311.195312 350.585938 300.0625 345.019531 C 300.0625 345.019531 307.484375 339.914062 312.585938 340.378906 C 312.585938 340.378906 320.007812 342.699219 315.371094 363.113281 " fill-opacity="1" fill-rule="nonzero"/></g><g clip-path="url(#id3)"><path fill="rgb(89.019775%, 88.62915%, 87.838745%)" d="M 130.359375 371.746094 C 130.074219 371.890625 129.972656 371.953125 130.070312 371.953125 C 130.109375 371.953125 130.175781 371.941406 130.277344 371.925781 C 130.304688 371.867188 130.332031 371.808594 130.359375 371.746094 M 179.449219 327.386719 C 169.535156 342.742188 160.613281 352.800781 153.175781 359.394531 C 168.285156 346.125 179.449219 327.386719 179.449219 327.386719 " fill-opacity="1" fill-rule="nonzero"/></g><g clip-path="url(#id4)"><path fill="rgb(88.238525%, 26.669312%, 20.779419%)" d="M 180.796875 313.527344 C 157.382812 359.339844 133.410156 370.222656 130.359375 371.746094 C 130.332031 371.808594 130.304688 371.867188 130.277344 371.925781 C 138.277344 370.550781 146.152344 365.5625 153.175781 359.394531 C 160.613281 352.800781 169.535156 342.742188 179.449219 327.386719 L 180.796875 313.527344 " fill-opacity="1" fill-rule="nonzero"/></g><path fill="rgb(88.238525%, 26.669312%, 20.779419%)" d="M 284.320312 309.5 L 288.003906 317.183594 C 288.003906 317.183594 303.832031 324.703125 313.054688 328.316406 C 313.054688 328.316406 293.519531 318.703125 284.320312 309.5 " fill-opacity="1" fill-rule="nonzero"/><path fill="rgb(89.019775%, 88.62915%, 87.838745%)" d="M 221.613281 316.25 C 216.644531 333.800781 210.367188 344.605469 204.699219 351.242188 C 217.4375 337.363281 221.632812 316.402344 221.632812 316.402344 L 221.613281 316.25 " fill-opacity="1" fill-rule="nonzero"/><path fill="rgb(88.238525%, 26.669312%, 20.779419%)" d="M 220.480469 305.476562 C 214.730469 342.859375 191.726562 360.6875 191.726562 360.6875 C 196.800781 358.53125 201.089844 355.167969 204.699219 351.242188 C 210.367188 344.605469 216.644531 333.800781 221.613281 316.25 L 220.480469 305.476562 " fill-opacity="1" fill-rule="nonzero"/><path fill="rgb(91.369629%, 27.449036%, 21.569824%)" d="M 268.363281 89.023438 C 268.0625 88.019531 268.4375 86.769531 269.210938 86.226562 C 269.976562 85.6875 270.84375 86.058594 271.140625 87.058594 C 271.441406 88.058594 271.066406 89.3125 270.296875 89.851562 C 269.53125 90.394531 268.664062 90.019531 268.363281 89.023438 " fill-opacity="1" fill-rule="nonzero"/><path fill="rgb(91.369629%, 27.449036%, 21.569824%)" d="M 271.3125 82.4375 C 271.058594 81.601562 271.324219 80.597656 271.898438 80.191406 C 272.472656 79.789062 273.140625 80.132812 273.394531 80.964844 C 273.644531 81.800781 273.378906 82.808594 272.808594 83.214844 C 272.226562 83.617188 271.558594 83.273438 271.3125 82.4375 " fill-opacity="1" fill-rule="nonzero"/><path fill="rgb(91.369629%, 27.449036%, 21.569824%)" d="M 263.582031 83.105469 C 263.195312 81.824219 263.652344 80.246094 264.601562 79.582031 C 265.542969 78.914062 266.625 79.40625 267.007812 80.691406 C 267.390625 81.972656 266.9375 83.546875 265.988281 84.21875 C 265.046875 84.882812 263.964844 84.386719 263.582031 83.105469 " fill-opacity="1" fill-rule="nonzero"/><path fill="rgb(91.369629%, 27.449036%, 21.569824%)" d="M 270.6875 75.003906 C 271.066406 74.871094 271.460938 75.238281 271.566406 75.824219 C 271.671875 76.410156 271.457031 76.980469 271.082031 77.113281 C 270.710938 77.238281 270.3125 76.871094 270.207031 76.289062 C 270.097656 75.703125 270.3125 75.128906 270.6875 75.003906 " fill-opacity="1" fill-rule="nonzero"/><path fill="rgb(91.369629%, 27.449036%, 21.569824%)" d="M 275.773438 85.050781 C 275.503906 84.875 275.480469 84.402344 275.726562 83.996094 C 275.972656 83.585938 276.398438 83.402344 276.671875 83.582031 C 276.941406 83.761719 276.960938 84.242188 276.714844 84.644531 C 276.46875 85.050781 276.046875 85.234375 275.773438 85.050781 " fill-opacity="1" fill-rule="nonzero"/><path fill="rgb(91.369629%, 27.449036%, 21.569824%)" d="M 275.355469 76.164062 C 275.191406 76.058594 275.179688 75.777344 275.328125 75.535156 C 275.472656 75.292969 275.726562 75.179688 275.890625 75.289062 C 276.050781 75.394531 276.0625 75.679688 275.914062 75.921875 C 275.769531 76.164062 275.515625 76.273438 275.355469 76.164062 " fill-opacity="1" fill-rule="nonzero"/><path fill="rgb(91.369629%, 27.449036%, 21.569824%)" d="M 276.976562 97.820312 C 275.089844 97.578125 269.113281 95.003906 264.289062 102.925781 C 259.464844 110.84375 243.871094 127.128906 211.515625 126.039062 C 179.160156 124.949219 159.433594 108.554688 145.671875 87.425781 C 145.671875 87.425781 140.546875 82.523438 136.878906 89.347656 C 136.878906 89.347656 175.542969 136.304688 176.773438 136.96875 C 178.007812 137.628906 241.195312 145.214844 241.195312 145.214844 C 241.195312 145.214844 274.761719 116.492188 274.929688 115.722656 C 275.097656 114.957031 276.976562 97.820312 276.976562 97.820312 " fill-opacity="1" fill-rule="nonzero"/><path fill="rgb(39.99939%, 11.759949%, 17.248535%)" d="M 271.25 98.429688 C 271.25 98.429688 261.371094 128.734375 217.9375 130.5625 C 165.4375 132.773438 145.664062 89.867188 145.664062 89.867188 C 145.664062 89.867188 126.074219 72.632812 143.40625 130.40625 C 160.535156 187.515625 251.113281 185.648438 272.308594 152.421875 C 287.769531 128.1875 287.890625 91.410156 271.25 98.429688 " fill-opacity="1" fill-rule="nonzero"/><path fill="rgb(72.158813%, 12.548828%, 34.509277%)" d="M 251.066406 168.957031 C 250.066406 168.792969 245.882812 165.09375 244.195312 164.160156 C 240.476562 162.097656 236.277344 159.792969 231.820312 158.5625 C 226.378906 157.058594 218.34375 156.839844 212.683594 157.515625 C 209.988281 157.839844 208.300781 158.90625 205.816406 159.382812 C 198.351562 154.667969 174.511719 149.644531 162.296875 156.902344 C 160.46875 160.117188 172.859375 167.59375 176.890625 169.640625 C 183.164062 172.828125 191.78125 175.28125 199.132812 176.832031 C 211.699219 179.488281 229.46875 178.957031 240.757812 174.605469 C 244.3125 173.234375 246.429688 169.726562 250.476562 169.027344 L 251.066406 168.957031 " fill-opacity="1" fill-rule="nonzero"/><path fill="rgb(100%, 100%, 100%)" d="M 269.070312 113.648438 C 275.585938 122.726562 266.289062 134.765625 255.863281 127.757812 C 257.316406 132.738281 255.707031 138.304688 249.960938 141.726562 C 246.894531 143.550781 242.644531 144.21875 238.652344 143.648438 C 233.621094 142.929688 232.679688 140.835938 230 138.515625 C 230.453125 141.855469 229.617188 144.722656 227.148438 147.53125 C 224.664062 150.359375 219.40625 151.113281 214.582031 151.191406 C 202.5625 151.386719 198.207031 144.816406 195.457031 137.851562 C 188.992188 140.703125 178.4375 144.296875 171.160156 141.671875 C 163.359375 138.859375 157.003906 125.726562 160.425781 119.8125 C 154.613281 128.058594 144.019531 117.203125 142.679688 108.554688 C 142.175781 105.300781 142.851562 98.136719 147.503906 96.289062 C 148.003906 96.089844 148.539062 95.9375 149.105469 95.828125 C 156.757812 107.53125 177.765625 132.253906 217.9375 130.5625 C 261.371094 128.734375 271.25 98.429688 271.25 98.429688 C 273.3125 97.5625 275.117188 97.367188 276.664062 97.730469 C 283.648438 118.160156 269.070312 113.648438 269.070312 113.648438 " fill-opacity="1" fill-rule="nonzero"/><path fill="rgb(34.118652%, 10.5896%, 15.289307%)" d="M 277.296875 111.792969 C 275.984375 113.621094 273.886719 114.070312 272.136719 114.070312 C 271.480469 114.070312 270.875 114.007812 270.375 113.929688 C 270.398438 113.964844 270.421875 114 270.441406 114.03125 C 271.296875 114.203125 272.046875 114.277344 272.707031 114.277344 C 275.605469 114.277344 276.804688 112.839844 277.296875 111.792969 " fill-opacity="1" fill-rule="nonzero"/><path fill="rgb(88.238525%, 87.838745%, 87.059021%)" d="M 270.195312 105.554688 C 269.363281 108.902344 269.425781 112.398438 270.375 113.929688 C 270.875 114.007812 271.480469 114.070312 272.136719 114.070312 C 273.886719 114.070312 275.984375 113.621094 277.296875 111.792969 C 277.574219 111.199219 277.621094 110.734375 277.621094 110.734375 C 277.015625 111.109375 276.433594 111.273438 275.871094 111.273438 C 273.246094 111.273438 271.183594 107.675781 270.195312 105.554688 " fill-opacity="1" fill-rule="nonzero"/><path fill="rgb(34.118652%, 10.5896%, 15.289307%)" d="M 247.296875 142.933594 C 245.492188 143.539062 243.484375 143.847656 241.457031 143.847656 C 240.519531 143.847656 239.578125 143.78125 238.652344 143.648438 C 238.21875 143.585938 237.816406 143.515625 237.4375 143.433594 C 238.726562 143.824219 240.121094 144.046875 241.597656 144.046875 C 243.394531 144.046875 245.308594 143.714844 247.296875 142.933594 M 230.566406 139.023438 C 231.023438 139.523438 231.523438 140.015625 232.074219 140.488281 C 231.59375 140.023438 231.113281 139.53125 230.566406 139.023438 " fill-opacity="1" fill-rule="nonzero"/><path fill="rgb(88.238525%, 87.838745%, 87.059021%)" d="M 235.800781 133.195312 C 234.300781 135.160156 232.742188 137.339844 229.835938 137.339844 C 229.625 137.339844 229.402344 137.328125 229.175781 137.304688 C 229.582031 137.871094 230.042969 138.453125 230.566406 139.023438 C 231.113281 139.53125 231.59375 140.023438 232.074219 140.488281 C 232.398438 140.761719 232.738281 141.03125 233.097656 141.289062 C 234.34375 142.183594 235.804688 142.941406 237.4375 143.433594 C 237.816406 143.515625 238.21875 143.585938 238.652344 143.648438 C 239.578125 143.78125 240.519531 143.847656 241.457031 143.847656 C 243.484375 143.847656 245.492188 143.539062 247.296875 142.933594 C 248.664062 142.398438 250.0625 141.652344 251.480469 140.660156 C 251.480469 140.660156 250.199219 141.074219 248.265625 141.074219 C 244.945312 141.074219 239.710938 139.851562 235.800781 133.195312 " fill-opacity="1" fill-rule="nonzero"/><path fill="rgb(34.118652%, 10.5896%, 15.289307%)" d="M 220.121094 150.832031 C 219.734375 150.859375 219.355469 150.882812 218.992188 150.898438 C 217.542969 151.082031 216.042969 151.167969 214.582031 151.191406 C 214.410156 151.195312 214.238281 151.195312 214.070312 151.195312 C 213.238281 151.195312 212.441406 151.164062 211.683594 151.097656 C 212.847656 151.230469 213.957031 151.28125 214.960938 151.28125 C 217.996094 151.28125 220.121094 150.832031 220.121094 150.832031 M 195.515625 138.820312 C 197.175781 143.570312 200.011719 146.5625 203.183594 148.417969 C 199.5625 146.097656 197.4375 142.578125 195.867188 138.855469 C 195.75 138.847656 195.632812 138.835938 195.515625 138.820312 " fill-opacity="1" fill-rule="nonzero"/><path fill="rgb(88.238525%, 87.838745%, 87.059021%)" d="M 208.488281 133.3125 C 204.875 134.683594 203.121094 137.429688 198.902344 138.519531 C 197.960938 138.761719 197.121094 138.871094 196.363281 138.871094 C 196.195312 138.871094 196.027344 138.867188 195.867188 138.855469 C 197.4375 142.578125 199.5625 146.097656 203.183594 148.417969 C 205.949219 150.039062 208.96875 150.792969 211.683594 151.097656 C 212.441406 151.164062 213.238281 151.195312 214.070312 151.195312 C 214.238281 151.195312 214.410156 151.195312 214.582031 151.191406 C 216.042969 151.167969 217.542969 151.082031 218.992188 150.898438 C 218.605469 150.910156 218.234375 150.917969 217.875 150.917969 C 203.144531 150.917969 208.589844 138.203125 210.386719 133.425781 C 209.746094 133.394531 209.117188 133.355469 208.488281 133.3125 " fill-opacity="1" fill-rule="nonzero"/><path fill="rgb(34.118652%, 10.5896%, 15.289307%)" d="M 172.035156 141.953125 C 173.777344 142.558594 174.964844 142.644531 174.964844 142.644531 C 174.757812 142.574219 174.558594 142.5 174.363281 142.425781 C 173.5625 142.320312 172.785156 142.167969 172.035156 141.953125 M 159.609375 122.171875 C 159.113281 124.046875 159.207031 126.480469 160.351562 129.640625 C 162.21875 134.789062 165.097656 137.90625 167.804688 139.792969 C 162.53125 135.761719 158.703125 127.578125 159.609375 122.171875 " fill-opacity="1" fill-rule="nonzero"/><path fill="rgb(88.238525%, 87.838745%, 87.059021%)" d="M 159.859375 121.394531 C 159.765625 121.640625 159.683594 121.898438 159.609375 122.171875 C 158.703125 127.578125 162.53125 135.761719 167.804688 139.792969 C 169.34375 140.859375 170.824219 141.53125 172.035156 141.953125 C 172.785156 142.167969 173.5625 142.320312 174.363281 142.425781 C 164.042969 138.367188 170.980469 126.695312 174.253906 123.050781 C 174.183594 123.035156 174.117188 123.019531 174.046875 123.007812 C 170.058594 122.191406 163.140625 123.097656 159.859375 121.394531 " fill-opacity="1" fill-rule="nonzero"/><path fill="rgb(34.118652%, 10.5896%, 15.289307%)" d="M 144.222656 99.019531 C 136.84375 111.84375 150.398438 121.070312 150.398438 121.070312 C 150.191406 120.871094 149.992188 120.664062 149.804688 120.464844 C 146.292969 117.691406 143.34375 112.851562 142.679688 108.554688 C 142.328125 106.273438 142.554688 102.074219 144.320312 99.128906 C 144.289062 99.09375 144.253906 99.054688 144.222656 99.019531 " fill-opacity="1" fill-rule="nonzero"/><path fill="rgb(88.238525%, 87.838745%, 87.059021%)" d="M 144.320312 99.128906 C 142.554688 102.074219 142.328125 106.273438 142.679688 108.554688 C 143.34375 112.851562 146.292969 117.691406 149.804688 120.464844 C 143.234375 113.390625 148.242188 105.863281 150.632812 103.015625 C 149.917969 102.535156 149.179688 102.148438 148.4375 101.886719 C 146.753906 101.296875 145.394531 100.3125 144.320312 99.128906 " fill-opacity="1" fill-rule="nonzero"/><path fill="rgb(34.118652%, 10.5896%, 15.289307%)" d="M 256.679688 128.269531 C 256.640625 128.304688 256.59375 128.335938 256.542969 128.367188 C 258.285156 129.359375 260.058594 129.816406 261.75 129.847656 C 260.152344 129.785156 258.4375 129.292969 256.679688 128.269531 M 270.765625 124.691406 C 270.542969 124.75 270.316406 124.796875 270.09375 124.84375 C 268.9375 127.082031 266.96875 128.816406 264.539062 129.515625 C 267.273438 128.800781 269.554688 126.988281 270.765625 124.691406 " fill-opacity="1" fill-rule="nonzero"/><path fill="rgb(88.238525%, 87.838745%, 87.059021%)" d="M 257.84375 119.726562 C 257.539062 119.980469 257.222656 120.238281 256.90625 120.488281 C 256.226562 121.882812 256.109375 123.164062 256.515625 124.917969 C 256.871094 126.433594 257.421875 127.660156 256.679688 128.269531 C 258.4375 129.292969 260.152344 129.785156 261.75 129.847656 C 261.820312 129.851562 261.886719 129.851562 261.957031 129.851562 C 262.847656 129.851562 263.714844 129.734375 264.539062 129.515625 C 266.96875 128.816406 268.9375 127.082031 270.09375 124.84375 C 269.25 125.007812 268.40625 125.082031 267.574219 125.082031 C 263.082031 125.082031 259.0625 122.804688 257.84375 119.726562 " fill-opacity="1" fill-rule="nonzero"/><path fill="rgb(76.469421%, 18.03894%, 22.749329%)" d="M 270.464844 114.0625 C 264.609375 114.40625 260.40625 115.234375 257.824219 118.964844 C 256.371094 121.050781 255.96875 122.550781 256.515625 124.917969 C 257.074219 127.300781 258.121094 128.972656 253.851562 128.644531 C 250.585938 128.390625 248.660156 127.226562 245.105469 127.792969 C 241.988281 128.289062 239.722656 129.386719 237.691406 131.070312 C 234.96875 133.332031 233.492188 138.78125 227.664062 136.984375 C 225.304688 136.253906 223.359375 134.25 220.753906 133.472656 C 217.867188 132.609375 215.070312 132.328125 212.046875 132.546875 C 205.664062 133.015625 204.300781 137.125 198.902344 138.519531 C 191.855469 140.339844 190.4375 134.6875 187.867188 131.347656 C 184.957031 127.5625 180.03125 124.226562 174.046875 123.007812 C 169.589844 122.09375 161.472656 123.332031 158.867188 120.679688 C 157.023438 118.800781 158.414062 116.777344 158.78125 114.898438 C 159.1875 112.816406 154.011719 103.851562 148.4375 101.886719 C 143.5625 100.171875 141.402344 95.148438 140.980469 91.558594 C 140.84375 90.378906 140.761719 88.839844 141.296875 87.550781 C 141.503906 84.96875 143.085938 85.605469 143.085938 85.605469 C 143.085938 85.605469 165.4375 132.773438 217.9375 130.5625 C 261.371094 128.734375 271.25 98.429688 271.25 98.429688 C 273.453125 97.5 275.359375 97.347656 276.976562 97.820312 C 270.386719 97.792969 268.230469 110.929688 270.464844 114.0625 " fill-opacity="1" fill-rule="nonzero"/><path fill="rgb(100%, 100%, 100%)" d="M 267.578125 158.257812 C 266.78125 154.476562 265.128906 150.394531 266.628906 146.824219 C 268.46875 142.4375 272.503906 143.632812 276.054688 145.71875 C 274.925781 148.023438 273.679688 150.273438 272.308594 152.421875 C 270.988281 154.492188 269.398438 156.4375 267.578125 158.257812 " fill-opacity="1" fill-rule="nonzero"/><path fill="rgb(100%, 100%, 100%)" d="M 209.375 175.519531 C 209.507812 174.277344 209.792969 173.042969 210.625 171.625 C 212.773438 167.984375 215.703125 165.855469 221.601562 165.582031 C 226.199219 165.363281 230.699219 166.128906 234.425781 168.386719 C 236.546875 169.671875 237.738281 171.308594 238.746094 173.019531 C 229.570312 175.25 219.164062 177.347656 209.375 175.519531 " fill-opacity="1" fill-rule="nonzero"/><path fill="rgb(100%, 100%, 100%)" d="M 169.976562 163.976562 C 172.917969 159.507812 183.5 158.355469 190.695312 159.835938 C 202.1875 162.195312 205.867188 168.453125 207.933594 175.414062 C 194.550781 174.402344 181.210938 170.726562 169.976562 163.976562 " fill-opacity="1" fill-rule="nonzero"/><path fill="rgb(100%, 100%, 100%)" d="M 165.511719 154.929688 C 167.515625 157.148438 168.964844 160.582031 169.261719 163.535156 C 164.527344 160.609375 160.171875 157.132812 156.367188 153.0625 C 158.875 150.804688 163.367188 152.554688 165.511719 154.929688 " fill-opacity="1" fill-rule="nonzero"/><path fill="rgb(100%, 100%, 100%)" d="M 241.699219 172.238281 C 241.789062 168.175781 241.664062 164.453125 246.496094 160.933594 C 249.703125 158.597656 253.324219 157.601562 257.996094 157.296875 C 262.144531 157.027344 263.699219 158.019531 266.792969 159 C 260.53125 164.914062 251.753906 169.410156 241.699219 172.238281 " fill-opacity="1" fill-rule="nonzero"/><path fill="rgb(87.059021%, 29.798889%, 24.308777%)" d="M 272.71875 151.769531 C 272.582031 151.988281 272.449219 152.207031 272.308594 152.421875 C 270.984375 154.5 269.386719 156.453125 267.554688 158.277344 C 267.734375 158.863281 267.832031 159.234375 267.777344 159.296875 C 267.765625 159.308594 267.765625 159.3125 267.765625 159.3125 C 267.785156 159.3125 274.199219 152.550781 274.199219 152.550781 C 273.65625 152.304688 273.164062 152.042969 272.71875 151.769531 " fill-opacity="1" fill-rule="nonzero"/><path fill="rgb(34.118652%, 10.5896%, 15.289307%)" d="M 268.308594 144.558594 C 263.949219 147.292969 266.691406 155.398438 267.554688 158.277344 C 269.386719 156.453125 270.984375 154.5 272.308594 152.421875 C 272.449219 152.207031 272.582031 151.988281 272.71875 151.769531 C 272.582031 151.988281 272.445312 152.207031 272.308594 152.421875 C 270.988281 154.492188 269.398438 156.4375 267.578125 158.257812 C 266.78125 154.476562 265.128906 150.394531 266.628906 146.824219 C 267.074219 145.765625 267.644531 145.03125 268.308594 144.558594 " fill-opacity="1" fill-rule="nonzero"/><path fill="rgb(88.238525%, 87.838745%, 87.059021%)" d="M 268.308594 144.558594 C 267.644531 145.03125 267.074219 145.765625 266.628906 146.824219 C 265.128906 150.394531 266.78125 154.476562 267.578125 158.257812 C 269.398438 156.4375 270.988281 154.492188 272.308594 152.421875 C 272.445312 152.207031 272.582031 151.988281 272.71875 151.769531 C 268.0625 148.898438 268.304688 144.605469 268.308594 144.558594 " fill-opacity="1" fill-rule="nonzero"/><path fill="rgb(34.118652%, 10.5896%, 15.289307%)" d="M 249.425781 159.074219 C 249.425781 159.074219 248.679688 159.441406 247.648438 160.160156 C 248.226562 159.808594 248.820312 159.492188 249.429688 159.210938 C 249.425781 159.167969 249.425781 159.121094 249.425781 159.074219 " fill-opacity="1" fill-rule="nonzero"/><path fill="rgb(87.059021%, 29.798889%, 24.308777%)" d="M 255.839844 166.695312 C 252.972656 168.207031 249.890625 169.542969 246.632812 170.6875 C 245.527344 171.441406 244.511719 172.320312 243.425781 173.097656 C 247.191406 172.339844 257.421875 169.976562 256.507812 166.851562 C 256.507812 166.851562 256.253906 166.8125 255.839844 166.695312 " fill-opacity="1" fill-rule="nonzero"/><path fill="rgb(34.118652%, 10.5896%, 15.289307%)" d="M 255.828125 166.695312 C 254.296875 167.5 252.710938 168.253906 251.0625 168.957031 C 251.066406 168.957031 251.066406 168.957031 251.066406 168.957031 L 251.058594 168.960938 C 249.632812 169.570312 248.164062 170.140625 246.65625 170.671875 C 246.648438 170.675781 246.640625 170.683594 246.632812 170.6875 C 249.890625 169.542969 252.972656 168.207031 255.839844 166.695312 C 255.835938 166.695312 255.832031 166.695312 255.828125 166.695312 " fill-opacity="1" fill-rule="nonzero"/><path fill="rgb(62.348938%, 11.759949%, 29.40979%)" d="M 246.65625 170.671875 C 245.078125 171.226562 243.457031 171.742188 241.800781 172.210938 C 241.871094 172.585938 241.957031 172.96875 242.070312 173.355469 C 242.070312 173.355469 242.585938 173.269531 243.425781 173.097656 C 244.511719 172.320312 245.527344 171.441406 246.632812 170.6875 C 246.640625 170.683594 246.648438 170.675781 246.65625 170.671875 M 251.0625 168.957031 C 251.0625 168.957031 251.058594 168.960938 251.058594 168.960938 L 251.066406 168.957031 C 251.066406 168.957031 251.066406 168.957031 251.0625 168.957031 M 242.140625 167.023438 C 241.683594 168.394531 241.484375 169.9375 241.710938 171.648438 C 241.742188 170.054688 241.78125 168.519531 242.140625 167.023438 " fill-opacity="1" fill-rule="nonzero"/><path fill="rgb(88.238525%, 87.838745%, 87.059021%)" d="M 249.429688 159.210938 C 248.820312 159.492188 248.226562 159.808594 247.648438 160.160156 C 245.875 161.40625 243.25 163.707031 242.140625 167.023438 C 241.78125 168.519531 241.742188 170.054688 241.710938 171.648438 C 241.734375 171.832031 241.765625 172.019531 241.800781 172.210938 C 243.457031 171.742188 245.078125 171.226562 246.65625 170.671875 C 248.164062 170.140625 249.632812 169.570312 251.058594 168.960938 C 251.058594 168.960938 251.0625 168.957031 251.0625 168.957031 C 252.710938 168.253906 254.296875 167.5 255.828125 166.695312 C 254.097656 166.210938 249.671875 164.46875 249.429688 159.210938 " fill-opacity="1" fill-rule="nonzero"/><path fill="rgb(62.348938%, 11.759949%, 29.40979%)" d="M 209.464844 175.535156 C 209.304688 176.546875 209.328125 177.207031 209.328125 177.207031 L 221.964844 177.136719 C 221.746094 176.785156 221.5625 176.425781 221.410156 176.0625 C 220.050781 176.164062 218.691406 176.214844 217.332031 176.214844 C 214.6875 176.214844 212.054688 176.011719 209.464844 175.535156 M 223.1875 165.460938 C 221.84375 165.464844 220.632812 165.574219 219.539062 165.769531 C 220.183594 165.675781 220.871094 165.613281 221.601562 165.582031 C 222.09375 165.558594 222.585938 165.546875 223.074219 165.546875 C 223.09375 165.546875 223.109375 165.546875 223.128906 165.546875 C 223.167969 165.488281 223.1875 165.460938 223.1875 165.460938 " fill-opacity="1" fill-rule="nonzero"/><path fill="rgb(88.238525%, 87.838745%, 87.059021%)" d="M 223.074219 165.546875 C 222.585938 165.546875 222.09375 165.558594 221.601562 165.582031 C 220.871094 165.613281 220.183594 165.675781 219.539062 165.769531 C 211.78125 167.136719 209.910156 172.703125 209.464844 175.535156 C 212.054688 176.011719 214.6875 176.214844 217.332031 176.214844 C 218.691406 176.214844 220.050781 176.164062 221.410156 176.0625 C 219.433594 171.386719 222.648438 166.269531 223.128906 165.546875 C 223.109375 165.546875 223.09375 165.546875 223.074219 165.546875 " fill-opacity="1" fill-rule="nonzero"/><path fill="rgb(62.348938%, 11.759949%, 29.40979%)" d="M 171.644531 162.285156 C 169.8125 163.398438 168.910156 164.382812 168.910156 164.382812 L 182.359375 171.933594 C 182.382812 171.242188 182.449219 170.59375 182.550781 169.988281 C 178.160156 168.355469 173.9375 166.359375 169.976562 163.976562 C 170.390625 163.347656 170.957031 162.785156 171.644531 162.285156 M 183.640625 159.15625 C 180.832031 159.15625 178.4375 159.570312 176.445312 160.171875 C 178.847656 159.53125 181.601562 159.226562 184.3125 159.226562 C 185.023438 159.226562 185.734375 159.246094 186.433594 159.289062 C 185.460938 159.199219 184.527344 159.15625 183.640625 159.15625 " fill-opacity="1" fill-rule="nonzero"/><path fill="rgb(88.238525%, 87.838745%, 87.059021%)" d="M 184.3125 159.226562 C 181.601562 159.226562 178.847656 159.53125 176.445312 160.171875 C 174.441406 160.769531 172.84375 161.554688 171.644531 162.285156 C 170.957031 162.785156 170.390625 163.347656 169.976562 163.976562 C 173.9375 166.359375 178.160156 168.355469 182.550781 169.988281 C 184.1875 160.535156 195.117188 161.210938 194.652344 161.058594 C 191.640625 160.070312 188.902344 159.519531 186.433594 159.289062 C 185.734375 159.246094 185.023438 159.226562 184.3125 159.226562 " fill-opacity="1" fill-rule="nonzero"/><path fill="rgb(34.118652%, 10.5896%, 15.289307%)" d="M 159.753906 151.992188 C 159.582031 151.992188 159.414062 152.003906 159.25 152.015625 C 159.269531 152.015625 159.292969 152.015625 159.3125 152.015625 C 160.796875 152.015625 162.390625 152.589844 163.71875 153.433594 C 163.75 153.390625 163.742188 153.351562 163.691406 153.316406 C 162.230469 152.335938 160.898438 151.992188 159.753906 151.992188 " fill-opacity="1" fill-rule="nonzero"/><path fill="rgb(87.449646%, 26.669312%, 20.779419%)" d="M 156.359375 153.054688 C 155.855469 153.390625 155.578125 153.675781 155.578125 153.675781 L 160.5625 158.714844 C 160.339844 158.035156 160.277344 157.441406 160.335938 156.929688 C 158.953125 155.699219 157.625 154.410156 156.359375 153.054688 " fill-opacity="1" fill-rule="nonzero"/><path fill="rgb(34.118652%, 10.5896%, 15.289307%)" d="M 156.449219 152.996094 C 156.417969 153.015625 156.386719 153.035156 156.359375 153.054688 C 157.625 154.410156 158.953125 155.699219 160.335938 156.929688 C 160.335938 156.925781 160.335938 156.925781 160.335938 156.925781 C 158.957031 155.703125 157.632812 154.417969 156.367188 153.0625 C 156.394531 153.039062 156.421875 153.019531 156.449219 152.996094 " fill-opacity="1" fill-rule="nonzero"/><path fill="rgb(88.238525%, 87.838745%, 87.059021%)" d="M 159.3125 152.015625 C 159.292969 152.015625 159.269531 152.015625 159.25 152.015625 C 158.046875 152.121094 157.085938 152.582031 156.449219 152.996094 C 156.421875 153.019531 156.394531 153.039062 156.367188 153.0625 C 157.632812 154.417969 158.957031 155.703125 160.335938 156.925781 C 160.601562 154.492188 163.460938 153.796875 163.71875 153.433594 C 162.390625 152.589844 160.796875 152.015625 159.3125 152.015625 " fill-opacity="1" fill-rule="nonzero"/><path fill="rgb(71.759033%, 22.749329%, 17.248535%)" d="M 266.945312 106.558594 C 258.277344 118.328125 246.863281 124.417969 236.925781 127.558594 C 253.242188 122.769531 262.289062 113.382812 266.945312 106.558594 M 272.292969 97.789062 C 272.242188 97.886719 272.191406 97.992188 272.140625 98.09375 C 272.171875 98.082031 272.199219 98.070312 272.230469 98.0625 C 272.277344 97.882812 272.292969 97.789062 272.292969 97.789062 M 145.664062 89.867188 C 145.664062 89.867188 146.015625 90.628906 146.75 91.949219 C 153.785156 102.855469 171.234375 124.488281 201.28125 129.558594 C 163.171875 122.640625 145.664062 89.867188 145.664062 89.867188 " fill-opacity="1" fill-rule="nonzero"/><path fill="rgb(30.198669%, 9.799194%, 13.729858%)" d="M 272.230469 98.0625 C 272.199219 98.070312 272.171875 98.082031 272.140625 98.09375 C 272.171875 98.082031 272.199219 98.070312 272.230469 98.0625 M 145.664062 89.867188 C 145.664062 89.867188 145.785156 90.207031 146.042969 90.835938 C 146.265625 91.191406 146.5 91.5625 146.75 91.949219 C 146.015625 90.628906 145.664062 89.867188 145.664062 89.867188 " fill-opacity="1" fill-rule="nonzero"/><path fill="rgb(78.819275%, 78.42865%, 77.648926%)" d="M 213.980469 132.476562 C 213.34375 132.476562 212.703125 132.5 212.046875 132.546875 C 211.550781 132.585938 211.082031 132.640625 210.640625 132.722656 C 210.570312 132.929688 210.484375 133.167969 210.386719 133.425781 C 211.128906 133.460938 211.882812 133.492188 212.644531 133.511719 C 212.703125 133.511719 212.761719 133.511719 212.824219 133.511719 C 215.332031 133.511719 217.738281 133.429688 220.042969 133.273438 C 218.027344 132.730469 216.042969 132.476562 213.980469 132.476562 M 243.980469 128.003906 C 242.457031 128.34375 241.140625 128.84375 239.953125 129.507812 C 241.351562 129.039062 242.695312 128.535156 243.980469 128.003906 M 174.644531 123.136719 C 177.6875 124.941406 181.015625 126.601562 184.648438 128.039062 C 181.972656 125.828125 178.546875 124.035156 174.644531 123.136719 M 262.335938 115.457031 C 260.496094 116.179688 258.996094 117.273438 257.824219 118.964844 C 257.769531 119.042969 257.714844 119.121094 257.664062 119.199219 C 257.710938 119.378906 257.773438 119.554688 257.84375 119.726562 C 259.519531 118.328125 261.011719 116.890625 262.335938 115.457031 M 272.230469 98.0625 C 272.199219 98.070312 272.171875 98.082031 272.140625 98.09375 C 272.171875 98.082031 272.199219 98.070312 272.230469 98.0625 " fill-opacity="1" fill-rule="nonzero"/><path fill="rgb(67.83905%, 67.83905%, 67.059326%)" d="M 210.640625 132.722656 C 209.847656 132.859375 209.136719 133.0625 208.488281 133.3125 C 209.117188 133.355469 209.746094 133.394531 210.386719 133.425781 C 210.484375 133.167969 210.570312 132.929688 210.640625 132.722656 " fill-opacity="1" fill-rule="nonzero"/><path fill="rgb(67.83905%, 67.83905%, 67.059326%)" d="M 257.664062 119.199219 C 257.359375 119.648438 257.109375 120.074219 256.90625 120.488281 C 257.222656 120.238281 257.539062 119.980469 257.84375 119.726562 C 257.773438 119.554688 257.710938 119.378906 257.664062 119.199219 " fill-opacity="1" fill-rule="nonzero"/><path fill="rgb(59.21936%, 14.898682%, 18.03894%)" d="M 146.042969 90.835938 C 147.777344 95.027344 155.6875 111.894531 174.644531 123.136719 C 178.546875 124.035156 181.972656 125.828125 184.648438 128.039062 C 191.472656 130.742188 199.375 132.667969 208.488281 133.3125 C 209.136719 133.0625 209.847656 132.859375 210.640625 132.722656 C 211.082031 132.640625 211.550781 132.585938 212.046875 132.546875 C 212.703125 132.5 213.34375 132.476562 213.980469 132.476562 C 216.042969 132.476562 218.027344 132.730469 220.042969 133.273438 C 227.738281 132.75 234.320312 131.398438 239.953125 129.507812 C 241.140625 128.84375 242.457031 128.34375 243.980469 128.003906 C 249.15625 125.863281 253.414062 123.261719 256.90625 120.488281 C 257.109375 120.074219 257.359375 119.648438 257.664062 119.199219 C 257.714844 119.121094 257.769531 119.042969 257.824219 118.964844 C 258.996094 117.273438 260.496094 116.179688 262.335938 115.457031 C 269.671875 107.507812 271.855469 99.613281 272.230469 98.0625 C 272.199219 98.070312 272.171875 98.082031 272.140625 98.09375 C 270.566406 101.199219 268.820312 104.011719 266.945312 106.558594 C 262.289062 113.382812 253.242188 122.769531 236.925781 127.558594 C 227.566406 130.519531 219.519531 130.859375 216.316406 130.859375 C 215.359375 130.859375 214.832031 130.828125 214.832031 130.828125 C 210.054688 130.78125 205.539062 130.332031 201.28125 129.558594 C 171.234375 124.488281 153.785156 102.855469 146.75 91.949219 C 146.5 91.5625 146.265625 91.191406 146.042969 90.835938 " fill-opacity="1" fill-rule="nonzero"/><path fill="rgb(91.369629%, 27.449036%, 21.569824%)" d="M 245.390625 189.332031 C 245.390625 189.332031 205.046875 212.058594 175.574219 186.183594 C 175.574219 186.183594 203.375 205.085938 245.390625 189.332031 " fill-opacity="1" fill-rule="nonzero"/><path fill="rgb(96.469116%, 54.119873%, 50.19989%)" d="M 197.191406 183.441406 C 196.144531 183.441406 195.539062 183.574219 195.519531 183.925781 C 195.457031 185.015625 201.042969 187.8125 208.097656 188.339844 C 208.914062 188.398438 209.710938 188.425781 210.488281 188.425781 C 216.433594 188.425781 221.023438 186.792969 221.078125 185.828125 C 221.144531 184.734375 215.386719 184.90625 208.328125 184.382812 C 203.546875 184.027344 199.390625 183.441406 197.191406 183.441406 " fill-opacity="1" fill-rule="nonzero"/><path fill="rgb(70.588684%, 30.979919%, 27.059937%)" d="M 282.722656 124.203125 C 282.722656 124.203125 287.082031 178.152344 213.398438 178.539062 C 137.914062 178.933594 138.648438 108.101562 138.648438 108.101562 C 138.648438 108.101562 137.957031 171.878906 212.789062 176.066406 C 212.789062 176.066406 277.800781 179.480469 282.722656 124.203125 " fill-opacity="1" fill-rule="nonzero"/><path fill="rgb(91.369629%, 27.449036%, 21.569824%)" d="M 153.207031 87.613281 C 153.207031 87.613281 137.300781 79.492188 131.660156 92.761719 C 131.660156 92.761719 139.527344 85.621094 153.207031 87.613281 " fill-opacity="1" fill-rule="nonzero"/><path fill="rgb(91.369629%, 27.449036%, 21.569824%)" d="M 286.875 102.382812 C 286.875 102.382812 277.730469 90.125 264.421875 98.996094 C 264.421875 98.996094 275.898438 95.925781 286.875 102.382812 " fill-opacity="1" fill-rule="nonzero"/><path fill="rgb(83.918762%, 25.489807%, 20.388794%)" d="M 167.695312 68.792969 C 171.296875 52.949219 185.097656 42.730469 198.523438 45.96875 C 211.945312 49.210938 219.90625 64.679688 216.300781 80.523438 C 212.699219 96.363281 198.894531 106.582031 185.472656 103.347656 C 172.050781 100.105469 164.089844 84.636719 167.695312 68.792969 Z M 187.667969 96.332031 C 199.199219 99.09375 210.980469 90.722656 213.976562 77.628906 C 216.976562 64.539062 210.058594 51.6875 198.527344 48.921875 C 186.996094 46.160156 175.21875 54.535156 172.21875 67.625 C 169.21875 80.71875 176.136719 93.574219 187.667969 96.332031 " fill-opacity="1" fill-rule="nonzero"/><path fill="rgb(94.119263%, 94.119263%, 93.728638%)" d="M 198.527344 48.921875 C 210.058594 51.6875 216.976562 64.539062 213.976562 77.628906 C 210.980469 90.722656 199.199219 99.09375 187.667969 96.332031 C 176.136719 93.574219 169.21875 80.71875 172.21875 67.625 C 175.21875 54.535156 186.996094 46.160156 198.527344 48.921875 " fill-opacity="1" fill-rule="nonzero"/><path fill="rgb(100%, 100%, 100%)" d="M 192.398438 50.011719 C 202.761719 50.453125 210.792969 60.347656 210.332031 72.117188 C 209.878906 83.886719 201.101562 93.074219 190.738281 92.636719 C 180.378906 92.195312 172.347656 82.300781 172.804688 70.527344 C 173.265625 58.761719 182.035156 49.574219 192.398438 50.011719 " fill-opacity="1" fill-rule="nonzero"/><path fill="rgb(51.368713%, 34.509277%, 69.40918%)" d="M 177.363281 70.382812 C 176.230469 77.574219 180.402344 84.246094 186.679688 85.28125 C 192.957031 86.320312 198.964844 81.328125 200.097656 74.136719 C 201.226562 66.945312 197.058594 60.273438 190.777344 59.234375 C 184.503906 58.199219 178.496094 63.191406 177.363281 70.382812 " fill-opacity="1" fill-rule="nonzero"/><path fill="rgb(38.42926%, 21.958923%, 61.569214%)" d="M 185.324219 71.808594 C 185.492188 77.621094 187.511719 82.296875 189.832031 82.246094 C 192.152344 82.195312 193.898438 77.441406 193.726562 71.625 C 193.554688 65.8125 191.539062 61.136719 189.214844 61.1875 C 186.898438 61.238281 185.152344 65.992188 185.324219 71.808594 " fill-opacity="1" fill-rule="nonzero"/><path fill="rgb(100%, 100%, 100%)" d="M 191.960938 67.992188 C 191.390625 71.605469 193.476562 74.953125 196.613281 75.472656 C 199.753906 75.992188 202.757812 73.484375 203.328125 69.867188 C 203.894531 66.253906 201.8125 62.902344 198.675781 62.382812 C 195.535156 61.867188 192.53125 64.375 191.960938 67.992188 " fill-opacity="1" fill-rule="nonzero"/><path fill="rgb(83.918762%, 25.489807%, 20.388794%)" d="M 220.789062 79.78125 C 218.214844 65.125 224.890625 51.703125 235.699219 49.800781 C 246.507812 47.898438 257.355469 58.234375 259.929688 72.894531 C 262.503906 87.550781 255.828125 100.972656 245.019531 102.871094 C 234.214844 104.777344 223.363281 94.433594 220.789062 79.78125 Z M 244.328125 96.578125 C 253.816406 94.84375 259.941406 84.113281 258.003906 72.617188 C 256.066406 61.125 246.808594 53.214844 237.320312 54.953125 C 227.832031 56.691406 221.710938 67.417969 223.644531 78.914062 C 225.578125 90.410156 234.839844 98.320312 244.328125 96.578125 " fill-opacity="1" fill-rule="nonzero"/><path fill="rgb(94.119263%, 94.119263%, 93.728638%)" d="M 236.390625 53.601562 C 245.878906 51.988281 255.332031 60.394531 257.503906 72.375 C 259.679688 84.355469 253.746094 95.378906 244.261719 96.996094 C 234.777344 98.609375 225.320312 90.203125 223.148438 78.222656 C 220.976562 66.238281 226.90625 55.21875 236.390625 53.601562 " fill-opacity="1" fill-rule="nonzero"/><path fill="rgb(100%, 100%, 100%)" d="M 237.386719 54.605469 C 245.609375 53.785156 253.234375 61.550781 254.410156 71.949219 C 255.589844 82.347656 249.875 91.441406 241.652344 92.265625 C 233.425781 93.085938 225.804688 85.320312 224.625 74.921875 C 223.449219 64.523438 229.160156 55.429688 237.386719 54.605469 " fill-opacity="1" fill-rule="nonzero"/><path fill="rgb(51.368713%, 34.509277%, 69.40918%)" d="M 233.960938 73.019531 C 233 79.632812 236.414062 85.632812 241.589844 86.421875 C 246.761719 87.210938 251.730469 82.488281 252.691406 75.875 C 253.652344 69.261719 250.238281 63.257812 245.066406 62.46875 C 239.890625 61.679688 234.921875 66.402344 233.960938 73.019531 " fill-opacity="1" fill-rule="nonzero"/><path fill="rgb(38.42926%, 21.958923%, 61.569214%)" d="M 240.585938 74.257812 C 240.546875 79.097656 241.953125 83.039062 243.726562 83.066406 C 245.5 83.089844 246.964844 79.195312 247.003906 74.355469 C 247.042969 69.519531 245.636719 65.574219 243.863281 65.546875 C 242.089844 65.523438 240.621094 69.421875 240.585938 74.257812 " fill-opacity="1" fill-rule="nonzero"/><path fill="rgb(100%, 100%, 100%)" d="M 245.925781 71.835938 C 245.796875 74.714844 247.742188 77.152344 250.273438 77.277344 C 252.800781 77.402344 254.960938 75.171875 255.09375 72.289062 C 255.226562 69.410156 253.28125 66.972656 250.75 66.847656 C 248.21875 66.722656 246.058594 68.957031 245.925781 71.835938 " fill-opacity="1" fill-rule="nonzero"/><path fill="rgb(94.509888%, 30.589294%, 25.099182%)" d="M 166.351562 94.886719 C 166.351562 94.886719 171.0625 113.324219 185.640625 113.324219 C 190.203125 113.324219 195.730469 111.519531 202.382812 106.78125 C 202.382812 106.78125 197.582031 109.007812 190.957031 109.007812 C 183.648438 109.007812 174.117188 106.296875 166.351562 94.886719 " fill-opacity="1" fill-rule="nonzero"/><path fill="rgb(94.509888%, 30.589294%, 25.099182%)" d="M 260.261719 96.367188 C 260.261719 96.367188 254.050781 106.804688 241.324219 106.804688 C 237.976562 106.804688 234.179688 106.082031 229.929688 104.257812 C 229.929688 104.257812 236.980469 110.742188 244.785156 110.742188 C 250.3125 110.742188 256.21875 107.488281 260.261719 96.367188 " fill-opacity="1" fill-rule="nonzero"/><path fill="rgb(91.369629%, 27.449036%, 21.569824%)" d="M 160.738281 69.367188 C 160.117188 70.320312 158.777344 70.570312 157.730469 69.921875 C 156.695312 69.269531 156.347656 67.96875 156.964844 67.015625 C 157.578125 66.058594 158.925781 65.808594 159.96875 66.460938 C 161.007812 67.105469 161.351562 68.40625 160.738281 69.367188 " fill-opacity="1" fill-rule="nonzero"/><path fill="rgb(91.369629%, 27.449036%, 21.569824%)" d="M 152.933594 69.476562 C 152.417969 70.269531 151.371094 70.523438 150.589844 70.035156 C 149.808594 69.550781 149.59375 68.511719 150.105469 67.710938 C 150.621094 66.917969 151.671875 66.667969 152.449219 67.148438 C 153.234375 67.640625 153.449219 68.683594 152.933594 69.476562 " fill-opacity="1" fill-rule="nonzero"/><path fill="rgb(91.369629%, 27.449036%, 21.569824%)" d="M 159.382812 78.777344 C 158.59375 79.996094 156.914062 80.339844 155.628906 79.539062 C 154.34375 78.742188 153.945312 77.101562 154.730469 75.878906 C 155.523438 74.660156 157.203125 74.316406 158.488281 75.113281 C 159.769531 75.914062 160.171875 77.554688 159.382812 78.777344 " fill-opacity="1" fill-rule="nonzero"/><path fill="rgb(91.369629%, 27.449036%, 21.569824%)" d="M 147.128906 74.554688 C 146.730469 74.15625 146.742188 73.453125 147.15625 72.976562 C 147.566406 72.503906 148.214844 72.445312 148.613281 72.839844 C 149 73.234375 148.992188 73.941406 148.582031 74.414062 C 148.167969 74.890625 147.519531 74.949219 147.128906 74.554688 " fill-opacity="1" fill-rule="nonzero"/><path fill="rgb(91.369629%, 27.449036%, 21.569824%)" d="M 151.742188 62.367188 C 151.800781 62.8125 151.417969 63.113281 150.886719 63.039062 C 150.351562 62.964844 149.878906 62.542969 149.820312 62.09375 C 149.765625 61.648438 150.152344 61.351562 150.683594 61.425781 C 151.214844 61.5 151.6875 61.921875 151.742188 62.367188 " fill-opacity="1" fill-rule="nonzero"/><path fill="rgb(91.369629%, 27.449036%, 21.569824%)" d="M 144.558594 68.03125 C 144.59375 68.296875 144.363281 68.476562 144.046875 68.429688 C 143.730469 68.390625 143.445312 68.136719 143.410156 67.871094 C 143.378906 67.605469 143.609375 67.425781 143.925781 67.46875 C 144.242188 67.515625 144.527344 67.765625 144.558594 68.03125 " fill-opacity="1" fill-rule="nonzero"/></svg>