<svg xmlns="http://www.w3.org/2000/svg" xmlns:xlink="http://www.w3.org/1999/xlink" width="500" zoomAndPan="magnify" viewBox="0 0 375 374.999991" height="500" preserveAspectRatio="xMidYMid meet" version="1.0"><path fill="rgb(53.329468%, 53.329468%, 53.329468%)" d="M 163.011719 150.789062 L 209.042969 196.820312 C 207.054688 198.9375 205.394531 201.28125 204.054688 203.859375 C 202.71875 206.4375 201.753906 209.144531 201.164062 211.988281 L 149.535156 160.292969 L 143.347656 154.109375 L 149.535156 153.066406 Z M 375 187.183594 C 375 190.246094 374.925781 193.308594 374.773438 196.367188 C 374.625 199.425781 374.398438 202.480469 374.097656 205.53125 C 373.796875 208.578125 373.421875 211.617188 372.972656 214.648438 C 372.523438 217.679688 372 220.695312 371.402344 223.699219 C 370.804688 226.703125 370.132812 229.691406 369.390625 232.664062 C 368.644531 235.636719 367.828125 238.585938 366.941406 241.519531 C 366.050781 244.449219 365.089844 247.359375 364.058594 250.242188 C 363.027344 253.128906 361.921875 255.984375 360.75 258.8125 C 359.578125 261.644531 358.339844 264.445312 357.027344 267.214844 C 355.71875 269.984375 354.339844 272.71875 352.898438 275.421875 C 351.453125 278.121094 349.945312 280.785156 348.371094 283.414062 C 346.792969 286.042969 345.15625 288.628906 343.453125 291.175781 C 341.753906 293.722656 339.988281 296.226562 338.164062 298.6875 C 336.339844 301.148438 334.453125 303.5625 332.511719 305.929688 C 330.566406 308.296875 328.566406 310.617188 326.511719 312.886719 C 324.453125 315.15625 322.339844 317.375 320.175781 319.539062 C 318.007812 321.707031 315.792969 323.820312 313.523438 325.875 C 311.25 327.933594 308.933594 329.933594 306.566406 331.875 C 304.195312 333.820312 301.78125 335.703125 299.320312 337.53125 C 296.863281 339.355469 294.359375 341.117188 291.808594 342.820312 C 289.261719 344.519531 286.675781 346.160156 284.046875 347.734375 C 281.421875 349.308594 278.757812 350.820312 276.054688 352.261719 C 273.351562 353.707031 270.617188 355.085938 267.847656 356.394531 C 265.078125 357.703125 262.277344 358.945312 259.449219 360.117188 C 256.617188 361.289062 253.761719 362.390625 250.878906 363.421875 C 247.992188 364.457031 245.085938 365.417969 242.152344 366.304688 C 239.222656 367.195312 236.269531 368.011719 233.300781 368.753906 C 230.328125 369.5 227.339844 370.171875 224.335938 370.769531 C 221.332031 371.367188 218.3125 371.890625 215.28125 372.339844 C 212.253906 372.789062 209.214844 373.164062 206.164062 373.464844 C 203.117188 373.765625 200.0625 373.988281 197 374.140625 C 193.941406 374.289062 190.878906 374.367188 187.816406 374.367188 C 184.753906 374.367188 181.691406 374.289062 178.632812 374.140625 C 175.574219 373.988281 172.519531 373.765625 169.46875 373.464844 C 166.421875 373.164062 163.382812 372.789062 160.351562 372.339844 C 157.320312 371.890625 154.304688 371.367188 151.300781 370.769531 C 148.296875 370.171875 145.308594 369.5 142.335938 368.753906 C 139.363281 368.011719 136.414062 367.195312 133.480469 366.304688 C 130.550781 365.417969 127.640625 364.457031 124.757812 363.421875 C 121.871094 362.390625 119.015625 361.289062 116.183594 360.117188 C 113.355469 358.945312 110.554688 357.703125 107.785156 356.394531 C 105.015625 355.085938 102.28125 353.707031 99.578125 352.261719 C 96.878906 350.820312 94.214844 349.308594 91.585938 347.734375 C 88.957031 346.160156 86.371094 344.519531 83.824219 342.820312 C 81.277344 341.117188 78.773438 339.355469 76.3125 337.527344 C 73.851562 335.703125 71.4375 333.820312 69.070312 331.875 C 66.703125 329.933594 64.382812 327.933594 62.113281 325.875 C 59.84375 323.820312 57.625 321.707031 55.460938 319.539062 C 53.292969 317.375 51.179688 315.15625 49.125 312.886719 C 47.066406 310.617188 45.066406 308.296875 43.125 305.929688 C 41.179688 303.5625 39.296875 301.148438 37.46875 298.6875 C 35.644531 296.226562 33.882812 293.722656 32.179688 291.175781 C 30.480469 288.628906 28.839844 286.042969 27.265625 283.414062 C 25.691406 280.785156 24.179688 278.121094 22.738281 275.421875 C 21.292969 272.71875 19.914062 269.984375 18.605469 267.214844 C 17.296875 264.445312 16.054688 261.644531 14.882812 258.8125 C 13.710938 255.984375 12.609375 253.128906 11.578125 250.242188 C 10.542969 247.359375 9.582031 244.449219 8.695312 241.519531 C 7.804688 238.585938 6.988281 235.636719 6.246094 232.664062 C 5.5 229.691406 4.828125 226.703125 4.230469 223.699219 C 3.632812 220.695312 3.109375 217.679688 2.660156 214.648438 C 2.210938 211.617188 1.835938 208.578125 1.535156 205.53125 C 1.234375 202.480469 1.011719 199.425781 0.859375 196.367188 C 0.710938 193.308594 0.632812 190.246094 0.632812 187.183594 C 0.632812 184.121094 0.710938 181.058594 0.859375 178 C 1.011719 174.9375 1.234375 171.882812 1.535156 168.835938 C 1.835938 165.785156 2.210938 162.746094 2.660156 159.71875 C 3.109375 156.6875 3.632812 153.667969 4.230469 150.664062 C 4.828125 147.660156 5.5 144.671875 6.246094 141.699219 C 6.988281 138.730469 7.804688 135.777344 8.695312 132.847656 C 9.582031 129.914062 10.542969 127.007812 11.578125 124.121094 C 12.609375 121.238281 13.710938 118.382812 14.882812 115.550781 C 16.054688 112.722656 17.296875 109.921875 18.605469 107.152344 C 19.914062 104.382812 21.292969 101.648438 22.738281 98.945312 C 24.179688 96.242188 25.691406 93.578125 27.265625 90.953125 C 28.839844 88.324219 30.480469 85.738281 32.179688 83.191406 C 33.882812 80.640625 35.644531 78.136719 37.46875 75.679688 C 39.296875 73.21875 41.179688 70.804688 43.125 68.433594 C 45.066406 66.066406 47.066406 63.75 49.125 61.476562 C 51.179688 59.207031 53.292969 56.992188 55.460938 54.824219 C 57.625 52.660156 59.84375 50.546875 62.113281 48.488281 C 64.382812 46.433594 66.703125 44.433594 69.070312 42.488281 C 71.4375 40.546875 73.851562 38.660156 76.3125 36.835938 C 78.773438 35.011719 81.277344 33.246094 83.824219 31.546875 C 86.371094 29.84375 88.957031 28.207031 91.585938 26.628906 C 94.214844 25.054688 96.878906 23.546875 99.578125 22.101562 C 102.28125 20.660156 105.015625 19.28125 107.785156 17.972656 C 110.554688 16.660156 113.355469 15.421875 116.183594 14.25 C 119.015625 13.074219 121.871094 11.972656 124.757812 10.941406 C 127.640625 9.910156 130.550781 8.949219 133.480469 8.058594 C 136.414062 7.171875 139.363281 6.355469 142.335938 5.609375 C 145.308594 4.867188 148.296875 4.195312 151.300781 3.597656 C 154.304688 3 157.320312 2.476562 160.351562 2.027344 C 163.382812 1.578125 166.421875 1.203125 169.46875 0.902344 C 172.519531 0.601562 175.574219 0.375 178.632812 0.226562 C 181.691406 0.0742188 184.753906 0 187.816406 0 C 190.878906 0.00390625 193.941406 0.0820312 197 0.238281 C 200.058594 0.390625 203.109375 0.617188 206.15625 0.921875 C 209.203125 1.226562 212.242188 1.605469 215.269531 2.054688 C 218.300781 2.507812 221.316406 3.035156 224.320312 3.636719 C 227.320312 4.234375 230.308594 4.910156 233.277344 5.65625 C 236.246094 6.402344 239.199219 7.222656 242.128906 8.113281 C 245.058594 9.003906 247.964844 9.964844 250.847656 11 C 253.726562 12.035156 256.582031 13.136719 259.414062 14.3125 C 262.242188 15.484375 265.039062 16.726562 267.804688 18.039062 C 270.574219 19.347656 273.308594 20.726562 276.007812 22.171875 C 278.707031 23.617188 281.371094 25.125 283.996094 26.703125 C 286.625 28.277344 289.210938 29.917969 291.753906 31.617188 C 294.300781 33.320312 296.804688 35.082031 299.261719 36.910156 C 301.722656 38.734375 304.132812 40.617188 306.5 42.5625 C 308.867188 44.503906 311.1875 46.503906 313.457031 48.558594 C 315.722656 50.617188 317.941406 52.726562 320.105469 54.894531 C 322.273438 57.058594 324.382812 59.277344 326.441406 61.542969 C 328.496094 63.8125 330.496094 66.132812 332.4375 68.5 C 334.382812 70.867188 336.265625 73.277344 338.089844 75.738281 C 339.917969 78.195312 341.679688 80.699219 343.382812 83.246094 C 345.082031 85.789062 346.722656 88.375 348.296875 91.003906 C 349.875 93.628906 351.382812 96.292969 352.828125 98.992188 C 354.273438 101.691406 355.652344 104.425781 356.960938 107.195312 C 358.273438 109.960938 359.515625 112.757812 360.6875 115.585938 C 361.863281 118.417969 362.964844 121.273438 364 124.152344 C 365.035156 127.035156 365.996094 129.941406 366.886719 132.871094 C 367.777344 135.800781 368.597656 138.753906 369.34375 141.722656 C 370.089844 144.691406 370.765625 147.679688 371.363281 150.679688 C 371.964844 153.683594 372.492188 156.699219 372.945312 159.730469 C 373.394531 162.757812 373.773438 165.796875 374.078125 168.84375 C 374.378906 171.890625 374.609375 174.941406 374.761719 178 C 374.917969 181.058594 374.996094 184.121094 375 187.183594 Z M 358.722656 187.183594 C 358.726562 183.125 358.585938 179.074219 358.300781 175.027344 C 358.015625 170.984375 357.585938 166.953125 357.015625 162.9375 C 356.441406 158.921875 355.726562 154.929688 354.871094 150.964844 C 354.011719 147 353.015625 143.070312 351.878906 139.175781 C 350.742188 135.285156 349.46875 131.4375 348.058594 127.632812 C 346.644531 123.828125 345.101562 120.082031 343.421875 116.390625 C 341.746094 112.695312 339.9375 109.066406 338 105.503906 C 336.0625 101.941406 334.003906 98.449219 331.816406 95.03125 C 329.632812 91.613281 327.328125 88.28125 324.902344 85.027344 C 322.480469 81.773438 319.945312 78.609375 317.296875 75.539062 C 314.648438 72.464844 311.894531 69.492188 309.03125 66.617188 C 306.171875 63.742188 303.210938 60.96875 300.15625 58.304688 C 297.097656 55.640625 293.949219 53.085938 290.707031 50.648438 C 287.46875 48.207031 284.144531 45.882812 280.742188 43.679688 C 277.335938 41.476562 273.855469 39.394531 270.300781 37.441406 C 266.75 35.484375 263.128906 33.65625 259.445312 31.960938 C 255.761719 30.261719 252.023438 28.695312 248.226562 27.265625 C 244.433594 25.832031 240.589844 24.539062 236.703125 23.378906 C 232.816406 22.222656 228.890625 21.203125 224.929688 20.328125 C 220.972656 19.449219 216.984375 18.710938 212.972656 18.117188 C 208.960938 17.523438 204.929688 17.074219 200.886719 16.765625 C 196.84375 16.460938 192.792969 16.296875 188.734375 16.277344 C 184.679688 16.261719 180.628906 16.386719 176.582031 16.65625 C 172.53125 16.925781 168.5 17.339844 164.484375 17.898438 C 160.464844 18.457031 156.472656 19.15625 152.503906 20 C 148.535156 20.839844 144.601562 21.824219 140.707031 22.945312 C 136.808594 24.070312 132.953125 25.328125 129.144531 26.726562 C 125.339844 28.121094 121.585938 29.652344 117.886719 31.316406 C 114.1875 32.984375 110.550781 34.777344 106.980469 36.699219 C 103.410156 38.625 99.910156 40.671875 96.484375 42.84375 C 93.0625 45.019531 89.71875 47.308594 86.457031 49.722656 C 83.195312 52.132812 80.023438 54.65625 76.941406 57.292969 C 76.683594 57.515625 76.457031 57.757812 76.25 58.023438 C 76.046875 58.292969 75.871094 58.578125 75.726562 58.878906 C 75.578125 59.183594 75.46875 59.496094 75.386719 59.824219 C 75.304688 60.152344 75.257812 60.480469 75.246094 60.816406 C 75.234375 61.152344 75.257812 61.488281 75.3125 61.820312 C 75.371094 62.152344 75.460938 62.472656 75.582031 62.785156 C 75.707031 63.097656 75.859375 63.394531 76.046875 63.675781 C 76.230469 63.957031 76.441406 64.21875 76.679688 64.457031 L 125.378906 113.15625 C 124.566406 113.832031 123.839844 114.585938 123.195312 115.421875 C 122.550781 116.257812 122.007812 117.152344 121.5625 118.109375 C 121.117188 119.066406 120.78125 120.0625 120.558594 121.09375 C 120.335938 122.125 120.226562 123.167969 120.234375 124.222656 L 120.234375 131.058594 L 65.15625 75.914062 C 64.667969 75.441406 64.109375 75.078125 63.476562 74.832031 C 62.84375 74.582031 62.1875 74.464844 61.507812 74.484375 C 60.828125 74.523438 60.183594 74.695312 59.570312 75 C 58.960938 75.304688 58.433594 75.71875 57.992188 76.238281 C 56.265625 78.257812 54.582031 80.316406 52.949219 82.410156 C 51.316406 84.507812 49.734375 86.640625 48.203125 88.8125 C 46.667969 90.984375 45.1875 93.1875 43.753906 95.429688 C 42.324219 97.667969 40.949219 99.9375 39.625 102.242188 C 38.300781 104.546875 37.03125 106.882812 35.8125 109.246094 C 34.597656 111.609375 33.4375 113.996094 32.335938 116.414062 C 31.230469 118.832031 30.183594 121.273438 29.195312 123.742188 C 28.207031 126.207031 27.273438 128.695312 26.398438 131.203125 C 25.527344 133.714844 24.710938 136.242188 23.957031 138.792969 C 23.199219 141.339844 22.503906 143.902344 21.871094 146.484375 C 21.234375 149.0625 20.660156 151.65625 20.144531 154.265625 C 19.628906 156.871094 19.175781 159.488281 18.78125 162.117188 C 18.390625 164.746094 18.058594 167.382812 17.789062 170.027344 C 17.519531 172.671875 17.3125 175.320312 17.167969 177.972656 C 17.023438 180.625 16.9375 183.28125 16.917969 185.9375 C 16.894531 188.597656 16.933594 191.253906 17.035156 193.90625 C 17.140625 196.5625 17.304688 199.214844 17.53125 201.863281 C 17.753906 204.511719 18.042969 207.152344 18.394531 209.785156 C 18.742188 212.421875 19.152344 215.046875 19.625 217.660156 C 20.097656 220.277344 20.628906 222.878906 21.222656 225.46875 C 21.816406 228.058594 22.46875 230.632812 23.183594 233.195312 C 23.898438 235.753906 24.671875 238.296875 25.503906 240.820312 C 26.335938 243.34375 27.226562 245.847656 28.175781 248.328125 C 29.125 250.8125 30.132812 253.269531 31.195312 255.703125 C 32.257812 258.140625 33.378906 260.546875 34.554688 262.933594 C 35.734375 265.316406 36.964844 267.667969 38.25 269.992188 C 39.535156 272.320312 40.875 274.613281 42.269531 276.875 C 43.664062 279.140625 45.109375 281.367188 46.605469 283.5625 C 48.105469 285.757812 49.652344 287.917969 51.25 290.039062 C 52.847656 292.164062 54.496094 294.25 56.191406 296.292969 C 57.886719 298.339844 59.628906 300.347656 61.421875 302.3125 C 63.210938 304.277344 65.042969 306.199219 66.921875 308.078125 C 68.800781 309.957031 70.722656 311.789062 72.6875 313.578125 C 74.652344 315.367188 76.660156 317.113281 78.703125 318.808594 C 80.75 320.503906 82.835938 322.148438 84.957031 323.75 C 87.082031 325.347656 89.242188 326.894531 91.4375 328.390625 C 93.632812 329.890625 95.859375 331.335938 98.125 332.730469 C 100.386719 334.121094 102.679688 335.460938 105.003906 336.75 C 107.332031 338.035156 109.683594 339.265625 112.066406 340.445312 C 114.449219 341.621094 116.859375 342.742188 119.292969 343.804688 C 121.730469 344.867188 124.1875 345.875 126.671875 346.824219 C 129.152344 347.773438 131.65625 348.664062 134.179688 349.496094 C 136.703125 350.328125 139.246094 351.101562 141.804688 351.816406 C 144.363281 352.53125 146.941406 353.183594 149.53125 353.777344 C 152.121094 354.371094 154.722656 354.902344 157.339844 355.375 C 159.953125 355.847656 162.578125 356.257812 165.214844 356.605469 C 167.847656 356.957031 170.488281 357.242188 173.136719 357.46875 C 175.785156 357.695312 178.4375 357.859375 181.089844 357.960938 C 183.746094 358.066406 186.402344 358.105469 189.0625 358.082031 C 191.71875 358.0625 194.375 357.976562 197.027344 357.832031 C 199.679688 357.6875 202.328125 357.480469 204.972656 357.210938 C 207.617188 356.941406 210.253906 356.609375 212.882812 356.21875 C 215.511719 355.824219 218.128906 355.371094 220.734375 354.855469 C 223.34375 354.339844 225.9375 353.765625 228.515625 353.128906 C 231.097656 352.496094 233.660156 351.800781 236.207031 351.042969 C 238.757812 350.289062 241.285156 349.472656 243.792969 348.601562 C 246.304688 347.726562 248.792969 346.792969 251.257812 345.804688 C 253.726562 344.816406 256.167969 343.769531 258.585938 342.664062 C 261 341.5625 263.390625 340.402344 265.753906 339.1875 C 268.117188 337.96875 270.453125 336.699219 272.757812 335.375 C 275.058594 334.050781 277.332031 332.675781 279.570312 331.246094 C 281.8125 329.8125 284.015625 328.332031 286.1875 326.796875 C 288.355469 325.265625 290.492188 323.683594 292.585938 322.050781 C 294.683594 320.417969 296.742188 318.734375 298.757812 317.007812 C 299.28125 316.566406 299.695312 316.039062 300 315.429688 C 300.304688 314.816406 300.476562 314.171875 300.515625 313.488281 C 300.519531 312.085938 300.042969 310.871094 299.085938 309.84375 L 240.035156 250.792969 C 242.863281 250.1875 245.566406 249.222656 248.136719 247.894531 C 250.710938 246.570312 253.066406 244.933594 255.203125 242.980469 L 310.542969 298.320312 C 311.5 299.261719 312.652344 299.738281 313.996094 299.753906 L 314.191406 299.753906 C 314.871094 299.734375 315.515625 299.574219 316.128906 299.28125 C 316.742188 298.984375 317.265625 298.578125 317.707031 298.058594 C 320.976562 294.234375 324.074219 290.273438 326.996094 286.175781 C 329.917969 282.078125 332.652344 277.855469 335.199219 273.515625 C 337.75 269.175781 340.101562 264.734375 342.257812 260.183594 C 344.414062 255.636719 346.363281 251.003906 348.109375 246.28125 C 349.855469 241.5625 351.390625 236.773438 352.714844 231.917969 C 354.035156 227.0625 355.144531 222.15625 356.03125 217.203125 C 356.921875 212.25 357.59375 207.265625 358.042969 202.25 C 358.492188 197.238281 358.71875 192.214844 358.722656 187.183594 Z M 250.488281 99.90625 L 134.097656 119.4375 C 133.527344 119.53125 132.992188 119.722656 132.492188 120.007812 C 131.988281 120.292969 131.550781 120.65625 131.175781 121.097656 C 130.804688 121.539062 130.519531 122.027344 130.320312 122.570312 C 130.121094 123.113281 130.023438 123.671875 130.023438 124.25 L 130.023438 219.574219 C 129.328125 219.085938 128.605469 218.636719 127.859375 218.230469 C 127.117188 217.820312 126.351562 217.457031 125.566406 217.132812 C 124.777344 216.808594 123.976562 216.53125 123.160156 216.296875 C 122.34375 216.0625 121.515625 215.875 120.679688 215.734375 C 119.839844 215.589844 119 215.496094 118.148438 215.445312 C 117.300781 215.398438 116.453125 215.398438 115.605469 215.441406 C 114.757812 215.488281 113.914062 215.582031 113.074219 215.71875 C 112.238281 215.859375 111.410156 216.046875 110.59375 216.277344 C 109.773438 216.507812 108.972656 216.785156 108.1875 217.105469 C 107.398438 217.425781 106.632812 217.789062 105.886719 218.191406 C 105.140625 218.597656 104.417969 219.042969 103.71875 219.53125 C 103.023438 220.015625 102.355469 220.539062 101.714844 221.097656 C 101.078125 221.660156 100.472656 222.253906 99.898438 222.878906 C 99.324219 223.507812 98.789062 224.164062 98.289062 224.851562 C 97.789062 225.539062 97.328125 226.25 96.90625 226.988281 C 96.484375 227.726562 96.105469 228.484375 95.769531 229.265625 C 95.433594 230.046875 95.140625 230.839844 94.894531 231.652344 C 94.644531 232.464844 94.441406 233.289062 94.285156 234.125 C 94.128906 234.960938 94.019531 235.800781 93.957031 236.648438 C 93.890625 237.496094 93.875 238.34375 93.90625 239.191406 C 93.9375 240.042969 94.015625 240.886719 94.140625 241.726562 C 94.265625 242.566406 94.4375 243.398438 94.652344 244.21875 C 94.871094 245.042969 95.132812 245.847656 95.4375 246.640625 C 95.746094 247.433594 96.09375 248.207031 96.488281 248.960938 C 96.878906 249.714844 97.3125 250.441406 97.785156 251.148438 C 98.261719 251.851562 98.773438 252.53125 99.320312 253.179688 C 99.867188 253.828125 100.453125 254.445312 101.070312 255.027344 C 101.6875 255.613281 102.335938 256.160156 103.011719 256.671875 C 103.691406 257.183594 104.394531 257.65625 105.125 258.089844 C 105.855469 258.523438 106.609375 258.914062 107.382812 259.265625 C 108.15625 259.617188 108.945312 259.921875 109.753906 260.183594 C 110.5625 260.445312 111.382812 260.664062 112.214844 260.835938 C 113.046875 261.007812 113.886719 261.128906 114.734375 261.207031 C 115.578125 261.285156 116.425781 261.316406 117.277344 261.300781 C 118.125 261.285156 118.972656 261.222656 119.8125 261.113281 C 120.65625 261.003906 121.492188 260.84375 122.316406 260.644531 C 123.140625 260.441406 123.953125 260.191406 124.75 259.898438 C 125.546875 259.605469 126.324219 259.269531 127.085938 258.890625 C 127.847656 258.511719 128.582031 258.089844 129.296875 257.628906 C 130.011719 257.167969 130.695312 256.671875 131.355469 256.132812 C 132.011719 255.59375 132.636719 255.023438 133.234375 254.417969 C 133.828125 253.808594 134.386719 253.171875 134.910156 252.503906 C 135.433594 251.832031 135.917969 251.136719 136.367188 250.414062 C 136.8125 249.691406 137.21875 248.945312 137.582031 248.179688 C 137.945312 247.410156 138.265625 246.625 138.539062 245.820312 C 138.816406 245.019531 139.046875 244.203125 139.234375 243.371094 C 139.417969 242.542969 139.558594 241.707031 139.652344 240.863281 C 139.742188 240.019531 139.789062 239.171875 139.789062 238.320312 L 139.789062 144.789062 L 246.414062 126.894531 L 246.414062 200.042969 C 245.71875 199.554688 244.996094 199.105469 244.253906 198.695312 C 243.507812 198.289062 242.742188 197.921875 241.957031 197.601562 C 241.171875 197.277344 240.367188 197 239.550781 196.765625 C 238.734375 196.53125 237.910156 196.34375 237.070312 196.199219 C 236.234375 196.058594 235.390625 195.964844 234.542969 195.914062 C 233.695312 195.867188 232.84375 195.863281 231.996094 195.910156 C 231.148438 195.957031 230.304688 196.050781 229.46875 196.1875 C 228.628906 196.328125 227.800781 196.511719 226.984375 196.746094 C 226.167969 196.976562 225.363281 197.25 224.578125 197.570312 C 223.789062 197.890625 223.023438 198.253906 222.277344 198.660156 C 221.53125 199.066406 220.808594 199.511719 220.113281 199.996094 C 219.414062 200.484375 218.746094 201.007812 218.109375 201.566406 C 217.46875 202.125 216.863281 202.71875 216.289062 203.347656 C 215.714844 203.972656 215.179688 204.632812 214.679688 205.320312 C 214.179688 206.003906 213.71875 206.71875 213.296875 207.457031 C 212.878906 208.195312 212.5 208.953125 212.160156 209.734375 C 211.824219 210.511719 211.53125 211.308594 211.285156 212.121094 C 211.035156 212.933594 210.832031 213.757812 210.675781 214.59375 C 210.519531 215.429688 210.410156 216.269531 210.347656 217.117188 C 210.285156 217.964844 210.269531 218.8125 210.296875 219.660156 C 210.328125 220.511719 210.40625 221.355469 210.53125 222.195312 C 210.65625 223.035156 210.828125 223.867188 211.046875 224.6875 C 211.261719 225.507812 211.523438 226.316406 211.832031 227.109375 C 212.136719 227.902344 212.488281 228.675781 212.878906 229.425781 C 213.273438 230.179688 213.703125 230.910156 214.179688 231.617188 C 214.652344 232.320312 215.164062 233 215.710938 233.648438 C 216.261719 234.296875 216.84375 234.910156 217.460938 235.496094 C 218.078125 236.078125 218.726562 236.628906 219.402344 237.140625 C 220.082031 237.652344 220.785156 238.125 221.515625 238.558594 C 222.246094 238.992188 223 239.382812 223.773438 239.734375 C 224.546875 240.082031 225.339844 240.390625 226.148438 240.652344 C 226.953125 240.914062 227.773438 241.132812 228.605469 241.304688 C 229.4375 241.472656 230.277344 241.597656 231.125 241.675781 C 231.96875 241.753906 232.820312 241.785156 233.667969 241.769531 C 234.515625 241.753906 235.363281 241.691406 236.207031 241.578125 C 237.046875 241.46875 237.882812 241.3125 238.707031 241.109375 C 239.53125 240.90625 240.34375 240.660156 241.140625 240.367188 C 241.9375 240.074219 242.71875 239.738281 243.476562 239.359375 C 244.238281 238.980469 244.976562 238.558594 245.6875 238.097656 C 246.402344 237.636719 247.085938 237.136719 247.746094 236.601562 C 248.402344 236.0625 249.03125 235.492188 249.625 234.882812 C 250.21875 234.277344 250.777344 233.640625 251.300781 232.96875 C 251.824219 232.300781 252.3125 231.605469 252.757812 230.882812 C 253.203125 230.160156 253.609375 229.414062 253.972656 228.644531 C 254.335938 227.878906 254.65625 227.09375 254.933594 226.289062 C 255.207031 225.484375 255.4375 224.667969 255.625 223.839844 C 255.8125 223.011719 255.949219 222.175781 256.042969 221.332031 C 256.136719 220.484375 256.179688 219.636719 256.179688 218.789062 L 256.179688 104.71875 C 256.179688 104 256.03125 103.316406 255.726562 102.664062 C 255.425781 102.011719 255 101.457031 254.449219 100.992188 C 253.90625 100.523438 253.285156 100.191406 252.59375 100 C 251.898438 99.808594 251.199219 99.777344 250.488281 99.90625 Z M 250.488281 99.90625 " fill-opacity="1" fill-rule="nonzero"/></svg>