<svg xmlns="http://www.w3.org/2000/svg" xmlns:xlink="http://www.w3.org/1999/xlink" width="500" zoomAndPan="magnify" viewBox="0 0 375 374.999991" height="500" preserveAspectRatio="xMidYMid meet" version="1.0"><defs><clipPath id="id1"><path d="M 39 60.519531 L 270.890625 60.519531 L 270.890625 294 L 39 294 Z M 39 60.519531 " clip-rule="nonzero"/></clipPath></defs><g clip-path="url(#id1)"><path fill="rgb(6.269836%, 5.879211%, 5.099487%)" d="M 266.167969 60.664062 L 124.117188 79.777344 C 122.0625 80.054688 120.515625 81.820312 120.515625 83.890625 L 120.515625 221.710938 C 120.515625 223.734375 119.53125 225.636719 117.878906 226.800781 C 116.21875 227.972656 114.085938 228.265625 112.160156 227.585938 C 106.25 225.496094 99.800781 224.441406 93.113281 224.441406 C 89.296875 224.441406 85.402344 224.785156 81.480469 225.476562 C 55.445312 230.070312 36.914062 248.789062 40.171875 267.203125 C 41.722656 275.976562 48 283.425781 57.851562 288.183594 C 67.960938 293.0625 80.550781 294.515625 93.296875 292.261719 C 116.03125 288.25 133.5 273.347656 134.878906 256.808594 L 135.234375 142.023438 C 135.242188 138.957031 137.542969 136.335938 140.585938 135.925781 L 249.160156 121.320312 C 250.929688 121.078125 252.710938 121.617188 254.050781 122.789062 C 255.394531 123.960938 256.164062 125.652344 256.164062 127.433594 L 256.164062 216.671875 C 256.164062 218.695312 255.179688 220.597656 253.527344 221.765625 C 251.871094 222.933594 249.734375 223.230469 247.808594 222.550781 C 238.523438 219.265625 227.914062 218.535156 217.132812 220.441406 C 191.097656 225.035156 172.5625 243.75 175.820312 262.164062 C 179.078125 280.578125 202.90625 291.816406 228.945312 287.226562 C 251.679688 283.214844 269.148438 268.3125 270.527344 251.773438 L 270.878906 64.785156 C 270.878906 63.566406 270.378906 62.457031 269.460938 61.65625 C 268.546875 60.855469 267.375 60.515625 266.167969 60.664062 " fill-opacity="1" fill-rule="nonzero"/></g></svg>