<svg xmlns="http://www.w3.org/2000/svg" xmlns:xlink="http://www.w3.org/1999/xlink" width="500" zoomAndPan="magnify" viewBox="0 0 375 374.999991" height="500" preserveAspectRatio="xMidYMid meet" version="1.0"><defs><clipPath id="id1"><path d="M 187 116.15625 L 211 116.15625 L 211 195 L 187 195 Z M 187 116.15625 " clip-rule="nonzero"/></clipPath><clipPath id="id2"><path d="M 164 116.15625 L 188 116.15625 L 188 195 L 164 195 Z M 164 116.15625 " clip-rule="nonzero"/></clipPath><clipPath id="id3"><path d="M 187 163 L 262.5 163 L 262.5 195 L 187 195 Z M 187 163 " clip-rule="nonzero"/></clipPath><clipPath id="id4"><path d="M 187 170 L 262.5 170 L 262.5 208 L 187 208 Z M 187 170 " clip-rule="nonzero"/></clipPath><clipPath id="id5"><path d="M 187 194 L 234 194 L 234 258.65625 L 187 258.65625 Z M 187 194 " clip-rule="nonzero"/></clipPath><clipPath id="id6"><path d="M 112.5 162 L 188 162 L 188 195 L 112.5 195 Z M 112.5 162 " clip-rule="nonzero"/></clipPath><clipPath id="id7"><path d="M 112.5 170 L 188 170 L 188 207 L 112.5 207 Z M 112.5 170 " clip-rule="nonzero"/></clipPath><clipPath id="id8"><path d="M 140 194 L 188 194 L 188 258.65625 L 140 258.65625 Z M 140 194 " clip-rule="nonzero"/></clipPath></defs><g clip-path="url(#id1)"><path fill="rgb(100%, 87.449646%, 0%)" d="M 187.5 194.554688 L 187.5 116.160156 L 210.679688 163.085938 Z M 187.5 194.554688 " fill-opacity="1" fill-rule="nonzero"/></g><g clip-path="url(#id2)"><path fill="rgb(98.039246%, 81.568909%, 17.248535%)" d="M 164.355469 162.976562 L 187.5 194.554688 L 187.5 116.160156 Z M 164.355469 162.976562 " fill-opacity="1" fill-rule="nonzero"/></g><g clip-path="url(#id3)"><path fill="rgb(100%, 87.449646%, 0%)" d="M 187.5 194.554688 L 210.679688 163.085938 L 262.453125 170.71875 Z M 187.5 194.554688 " fill-opacity="1" fill-rule="nonzero"/></g><g clip-path="url(#id4)"><path fill="rgb(98.039246%, 81.568909%, 17.248535%)" d="M 224.898438 207.113281 L 187.5 194.554688 L 262.453125 170.71875 Z M 224.898438 207.113281 " fill-opacity="1" fill-rule="nonzero"/></g><g clip-path="url(#id5)"><path fill="rgb(100%, 87.449646%, 0%)" d="M 187.5 194.554688 L 224.898438 207.113281 L 233.625 258.648438 Z M 187.5 194.554688 " fill-opacity="1" fill-rule="nonzero"/><path fill="rgb(98.039246%, 81.568909%, 17.248535%)" d="M 187.359375 234.222656 L 187.5 194.554688 L 233.625 258.648438 Z M 187.359375 234.222656 " fill-opacity="1" fill-rule="nonzero"/></g><g clip-path="url(#id6)"><path fill="rgb(100%, 87.449646%, 0%)" d="M 164.355469 162.976562 L 112.546875 170.378906 L 187.5 194.554688 Z M 164.355469 162.976562 " fill-opacity="1" fill-rule="nonzero"/></g><g clip-path="url(#id7)"><path fill="rgb(98.039246%, 81.568909%, 17.248535%)" d="M 149.941406 206.945312 L 187.5 194.554688 L 112.546875 170.378906 Z M 149.941406 206.945312 " fill-opacity="1" fill-rule="nonzero"/></g><g clip-path="url(#id8)"><path fill="rgb(98.039246%, 81.568909%, 17.248535%)" d="M 140.976562 258.441406 L 187.5 194.554688 L 149.941406 206.945312 Z M 140.976562 258.441406 " fill-opacity="1" fill-rule="nonzero"/><path fill="rgb(100%, 87.449646%, 0%)" d="M 187.359375 234.222656 L 187.5 194.554688 L 140.976562 258.441406 Z M 187.359375 234.222656 " fill-opacity="1" fill-rule="nonzero"/></g></svg>