<svg xmlns="http://www.w3.org/2000/svg" xmlns:xlink="http://www.w3.org/1999/xlink" width="500" zoomAndPan="magnify" viewBox="0 0 375 374.999991" height="500" preserveAspectRatio="xMidYMid meet" version="1.0"><defs><clipPath id="id1"><path d="M 39 60.519531 L 270.894531 60.519531 L 270.894531 294 L 39 294 Z M 39 60.519531 " clip-rule="nonzero"/></clipPath><clipPath id="id2"><path d="M 36.890625 36.890625 L 338.359375 36.890625 L 338.359375 338.359375 L 36.890625 338.359375 Z M 36.890625 36.890625 " clip-rule="nonzero"/></clipPath></defs><g clip-path="url(#id1)"><path fill="rgb(6.269836%, 5.879211%, 5.099487%)" d="M 266.160156 60.664062 L 124.121094 79.777344 C 122.070312 80.054688 120.523438 81.820312 120.523438 83.890625 L 120.523438 221.714844 C 120.523438 223.738281 119.535156 225.640625 117.886719 226.808594 C 116.226562 227.976562 114.09375 228.269531 112.167969 227.589844 C 106.257812 225.5 99.808594 224.445312 93.125 224.445312 C 89.304688 224.445312 85.410156 224.789062 81.492188 225.480469 C 55.460938 230.074219 36.929688 248.796875 40.1875 267.210938 C 41.738281 275.980469 48.015625 283.433594 57.863281 288.1875 C 67.972656 293.070312 80.558594 294.519531 93.304688 292.269531 C 116.039062 288.257812 133.503906 273.355469 134.882812 256.8125 L 135.238281 142.023438 C 135.246094 138.960938 137.546875 136.339844 140.589844 135.929688 L 249.15625 121.320312 C 250.925781 121.082031 252.707031 121.617188 254.046875 122.789062 C 255.386719 123.964844 256.15625 125.65625 256.15625 127.4375 L 256.15625 216.675781 C 256.15625 218.699219 255.171875 220.601562 253.523438 221.769531 C 251.863281 222.9375 249.726562 223.234375 247.804688 222.554688 C 238.519531 219.269531 227.914062 218.539062 217.128906 220.445312 C 191.097656 225.039062 172.566406 243.757812 175.820312 262.171875 C 179.078125 280.582031 202.90625 291.824219 228.941406 287.234375 C 251.671875 283.222656 269.140625 268.320312 270.519531 251.777344 L 270.871094 64.785156 C 270.871094 63.570312 270.371094 62.457031 269.453125 61.65625 C 268.539062 60.855469 267.367188 60.515625 266.160156 60.664062 " fill-opacity="1" fill-rule="nonzero"/></g><g clip-path="url(#id2)"><path fill="rgb(0%, 0%, 0%)" d="M 36.882812 45.515625 L 45.515625 36.882812 L 338.445312 329.804688 L 329.8125 338.433594 Z M 36.882812 45.515625 " fill-opacity="1" fill-rule="nonzero"/></g></svg>